<svg xmlns="http://www.w3.org/2000/svg" xmlns:xlink="http://www.w3.org/1999/xlink" xmlns:lucid="lucid" width="940" height="1100"><g transform="translate(40 240)" lucid:page-tab-id="0_0"><path d="M400 6a6 6 0 0 1 6-6h148a6 6 0 0 1 6 6v108a6 6 0 0 1-6 6H406a6 6 0 0 1-6-6z" stroke="#3a414a" fill="#fff"/><use xlink:href="#a" transform="matrix(1,0,0,1,412,12) translate(37.19753086419753 53.77777777777778)"/><path d="M475.2 203.6a8 8 0 0 1 9.6 0l70.4 52.8a4.5 4.5 0 0 1 0 7.2l-70.4 52.8a8 8 0 0 1-9.6 0l-70.4-52.8a4.5 4.5 0 0 1 0-7.2z" stroke="#3a414a" fill="#fff"/><use xlink:href="#b" transform="matrix(1,0,0,1,405,205) translate(48.52351851851852 59.02777777777778)"/><use xlink:href="#c" transform="matrix(1,0,0,1,405,205) translate(84.26425925925926 59.02777777777778)"/><path d="M467.33 121v34a6 6 0 0 0 6 6h.67a6 6 0 0 1 6 6v18.12" stroke="#3a414a" fill="none"/><path d="M467.83 121h-1v-.5h1z" stroke="#3a414a" stroke-width=".05" fill="#3a414a"/><path d="M480 199.88l-4.63-14.26h9.26z" stroke="#3a414a" fill="#3a414a"/><path d="M336.2 261H319v-2h17.2zm65.3 0h-34.7v-2h34.7z" stroke="#008a0e" stroke-width=".05" fill="#008a0e"/><path d="M402.58 259.08l-.08.92.08.92-1.1.08v-2h1.13z" fill="#008a0e"/><path d="M402.6 259.08l-.08.92.1.95-1.17.08v-2.05h1.2zm-1.1-.06v1.95l1.06-.07-.1-.9.1-.93v-.05z" stroke="#008a0e" stroke-width=".05" fill="#008a0e"/><path d="M318 264.63L303.74 260l14.26-4.63z" fill="#008a0e"/><path d="M319 266l-18.5-6 18.5-6zm-12.03-6l10.03 3.26v-6.52z" stroke="#008a0e" stroke-width=".05" fill="#008a0e"/><use xlink:href="#d" transform="matrix(1,0,0,1,336.1904564641212,249.33333333333334) translate(0 14.222222222222223)"/><path d="M100 408c0 6.63-26.86 12-60 12s-60-5.37-60-12v-96c0-6.63 26.86-12 60-12s60 5.37 60 12z" stroke="#3a414a" fill="#fff"/><path d="M100 312c0 6.63-26.86 12-60 12s-60-5.37-60-12" stroke="#3a414a" fill="none"/><use xlink:href="#e" transform="matrix(1,0,0,1,-15,329) translate(26.049382716049386 47.34027777777778)"/><path d="M626.7 261h-68.2v-2h68.2zm74.3 0h-50.7v-2H701z" stroke="#e81313" stroke-width=".05" fill="#e81313"/><path d="M558.53 261h-1.14l.1-1-.08-.92 1.1-.08z" fill="#e81313"/><path d="M558.55 261.02h-1.18l.1-1.02-.08-.95 1.15-.08zm-1.1-1.92l.08.9-.1.98h1.07v-1.95z" stroke="#e81313" stroke-width=".05" fill="#e81313"/><path d="M716.26 260L702 264.63v-9.26z" fill="#e81313"/><path d="M719.5 260l-18.5 6v-12zm-16.5 3.26l10.03-3.26-10.03-3.26z" stroke="#e81313" stroke-width=".05" fill="#e81313"/><use xlink:href="#f" transform="matrix(1,0,0,1,626.6986133537008,249.33333333333334) translate(0 14.222222222222223)"/><path d="M180 206a6 6 0 0 1 6-6h54c33.14 0 60 26.86 60 60s-26.86 60-60 60h-54a6 6 0 0 1-6-6z" stroke="#3a414a" fill="#fff"/><use xlink:href="#g" transform="matrix(1,0,0,1,185,205) translate(26.66666666666667 59.02777777777778)"/><path d="M720 206a6 6 0 0 1 6-6h148a6 6 0 0 1 6 6v108a6 6 0 0 1-6 6H726a6 6 0 0 1-6-6z" stroke="#3a414a" fill="#fff"/><path d="M736 200v120m128-120v120" stroke="#3a414a" fill="none"/><use xlink:href="#h" transform="matrix(1,0,0,1,745,205) translate(5.123456790123456 59.44444444444444)"/><use xlink:href="#i" transform="matrix(1,0,0,1,745,205) translate(51.91358024691358 59.44444444444444)"/><use xlink:href="#c" transform="matrix(1,0,0,1,745,205) translate(87.65432098765432 59.44444444444444)"/><path d="M140-194.08a6.8 6.8 0 0 1 5.95-6.74l148.1-18.44A5.3 5.3 0 0 1 300-214v108a6 6 0 0 1-6 6H146a6 6 0 0 1-6-6z" stroke="#3a414a" fill="#fff"/><use xlink:href="#j" transform="matrix(1,0,0,1,145,-195) translate(15.21604938271605 48.71527777777778)"/><use xlink:href="#k" transform="matrix(1,0,0,1,145,-195) translate(64.53703703703704 48.71527777777778)"/><use xlink:href="#c" transform="matrix(1,0,0,1,145,-195) translate(117.56172839506173 48.71527777777778)"/><path d="M301-159.83h93.25a6 6 0 0 1 6 6V-96a6 6 0 0 0 6 6H474a6 6 0 0 1 6 6v67.12" stroke="#3a414a" fill="none"/><path d="M301-159.33h-.5v-1h.5z" stroke="#3a414a" stroke-width=".05" fill="#3a414a"/><path d="M480-2.12l-4.63-14.26h9.26z" stroke="#3a414a" fill="#3a414a"/><path d="M160 546a6 6 0 0 1 6-6h148a6 6 0 0 1 6 6v108a6 6 0 0 1-6 6H166a6 6 0 0 1-6-6z" stroke="#3a414a" fill="#fff"/><use xlink:href="#l" transform="matrix(1,0,0,1,172,552) translate(40.25308641975309 53.77777777777778)"/><path d="M235.2 383.6a8 8 0 0 1 9.6 0l70.4 52.8a4.5 4.5 0 0 1 0 7.2l-70.4 52.8a8 8 0 0 1-9.6 0l-70.4-52.8a4.5 4.5 0 0 1 0-7.2z" stroke="#3a414a" fill="#fff"/><use xlink:href="#m" transform="matrix(1,0,0,1,165,385) translate(36.795123456790115 59.02777777777778)"/><path d="M240 321v44.12" stroke="#3a414a" fill="none"/><path d="M240.5 321h-1v-.5h.5l.5-.02z" stroke="#3a414a" stroke-width=".05" fill="#3a414a"/><path d="M240 379.88l-4.63-14.26h9.26z" stroke="#3a414a" fill="#3a414a"/><path d="M132.25 433.96l.06.82.2.76.3.73.4.67.52.6.6.5.66.4.73.3.77.2.82.06h24.2v2h-24.3l-1.05-.08-1.06-.26-1.03-.42-.94-.57-.83-.72-.72-.83-.57-.94-.4-1.02-.27-1.06-.08-1.06V311.92h2zm-5.9-175.26l1.06.25 1.03.43.94.57.83.7.72.85.57.94.4 1 .27 1.08.08 1.06v25h-2v-24.93l-.07-.82-.18-.76-.3-.72-.4-.67-.52-.6-.6-.5-.66-.42-.73-.3-.77-.18-.82-.06H48.93l-.82.06-.76.18-.73.3-.65.4-.6.52-.5.6-.42.67-.3.72-.18.76-.07.82v15.46h-2v-15.53l.1-1.05.24-1.07.42-1 .58-.95.7-.84.85-.7.93-.58 1.02-.43 1.07-.25 1.04-.08h76.45z" stroke="#008a0e" stroke-width=".05" fill="#008a0e"/><path d="M162.58 439.08l-.08.92.08.92-1.1.08v-2h1.13z" fill="#008a0e"/><path d="M162.6 439.08l-.08.92.1.95-1.17.08v-2.05h1.2zm-1.1-.06v1.95l1.06-.07-.1-.9.1-.93v-.05z" stroke="#008a0e" stroke-width=".05" fill="#008a0e"/><path d="M42.88 296.38l-4.63-14.27h9.27z" fill="#008a0e"/><path d="M42.88 299.6l-6-18.5H48.9zm-3.26-16.5l3.26 10.04 3.26-10.03z" stroke="#008a0e" stroke-width=".05" fill="#008a0e"/><use xlink:href="#d" transform="matrix(1,0,0,1,115.94030053518797,290.58227584383) translate(0 14.222222222222223)"/><path d="M238.8 518.75l.3.02.35.1.32.12.3.18.27.23.23.27.2.3.12.33.07.35.03.27-2 .16v-.16l-.03-.03-.02-.05-.02-.02-.03-.03-.04-.02h-.03l-.04-.02h-92.24v-2zM161.5 441h-32.96l-.82.06-.77.2-.72.3-.67.4-.6.5-.5.6-.4.67-.3.73-.2.76-.06.82v63.04h-2v-63.12l.08-1.06.26-1.06.42-1.02.57-.94.72-.83.83-.72.94-.57 1-.42 1.08-.26 1.06-.08h33.04z" stroke="#008a0e" stroke-width=".05" fill="#008a0e"/><path d="M162.58 439.08l-.08.92.08.92-1.1.08v-2h1.13z" fill="#008a0e"/><path d="M162.6 439.08l-.08.92.1.95-1.17.08v-2.05h1.2zm-1.1-.06v1.95l1.06-.07-.1-.9.1-.93v-.05z" stroke="#008a0e" stroke-width=".05" fill="#008a0e"/><path d="M240 536.26L235.37 522h9.26z" fill="#008a0e"/><path d="M240 539.5l-6-18.5h12zm-3.26-16.5l3.26 10.03 3.26-10.03z" stroke="#008a0e" stroke-width=".05" fill="#008a0e"/><use xlink:href="#d" transform="matrix(1,0,0,1,115.94030053518797,509.08335833333325) translate(0 14.222222222222223)"/><path d="M518.6 441H318.5v-2h200.12zm45.73-6.96l-.08 1.06-.26 1.06-.43 1.02-.57.94-.72.83-.83.72-.94.57-1 .42-1.07.26-1.06.08h-15.15v-2h15.07l.82-.06.76-.2.72-.3.67-.4.6-.5.5-.6.42-.67.3-.73.17-.76.06-.82V278.5h2z" stroke="#e81313" stroke-width=".05" fill="#e81313"/><path d="M318.53 441h-1.14l.1-1-.08-.92 1.1-.08z" fill="#e81313"/><path d="M318.55 441.02h-1.18l.1-1.02-.08-.95 1.15-.08zm-1.1-1.92l.08.9-.1.98h1.07v-1.95z" stroke="#e81313" stroke-width=".05" fill="#e81313"/><path d="M567.97 277.5h-9.27l4.63-14.26z" fill="#e81313"/><path d="M569.35 278.5h-12.03l6-18.5zm-9.28-2h6.52l-3.27-10.03z" stroke="#e81313" stroke-width=".05" fill="#e81313"/><use xlink:href="#f" transform="matrix(1,0,0,1,518.6152550203676,429.3333333333333) translate(0 14.222222222222223)"/><path d="M360 546a6 6 0 0 1 6-6h148a6 6 0 0 1 6 6v108a6 6 0 0 1-6 6H366a6 6 0 0 1-6-6z" stroke="#3a414a" fill="#fff"/><use xlink:href="#n" transform="matrix(1,0,0,1,372,552) translate(30.345679012345677 53.77777777777778)"/><path d="M435.2 723.6a8 8 0 0 1 9.6 0l70.4 52.8a4.5 4.5 0 0 1 0 7.2l-70.4 52.8a8 8 0 0 1-9.6 0l-70.4-52.8a4.5 4.5 0 0 1 0-7.2z" stroke="#3a414a" fill="#fff"/><use xlink:href="#o" transform="matrix(1,0,0,1,365,725) translate(32.50499999999999 59.02777777777778)"/><path d="M440 661v44.12" stroke="#3a414a" fill="none"/><path d="M440.5 661h-1v-.5h1z" stroke="#3a414a" stroke-width=".05" fill="#3a414a"/><path d="M440 719.88l-4.63-14.26h9.26z" stroke="#3a414a" fill="#3a414a"/><path d="M342.25 773.96l.06.82.2.76.3.73.4.67.52.6.6.5.66.4.72.3.77.2.82.06h14.2v2h-14.3l-1.05-.08-1.06-.26-1.03-.42-.94-.57-.83-.72-.72-.83-.57-.94-.4-1.02-.27-1.06-.08-1.06V603.42h2zm-5.9-275.38l1.06.26 1.03.42.94.57.83.72.72.83.57.94.4 1.02.27 1.06.08 1.06v76.62h-2v-76.54l-.07-.82-.18-.76-.3-.73-.4-.67-.52-.6-.6-.5-.66-.4-.73-.3-.77-.2-.82-.06h-63.16l-.82.06-.76.2-.73.3-.67.4-.6.5-.5.6-.4.67-.3.73-.2.76-.06.82V521h-2v-15.54l.08-1.06.26-1.06.42-1.02.57-.94.72-.83.83-.72.94-.57 1.02-.42 1.06-.26 1.06-.08h63.33z" stroke="#008a0e" stroke-width=".05" fill="#008a0e"/><path d="M362.58 779.08l-.08.92.08.92-1.1.08v-2h1.13z" fill="#008a0e"/><path d="M362.6 779.08l-.08.92.1.95-1.17.08v-2.05h1.2zm-1.1-.06v1.95l1.06-.07-.1-.9.1-.93v-.05z" stroke="#008a0e" stroke-width=".05" fill="#008a0e"/><path d="M266 536.26L261.37 522h9.26z" fill="#008a0e"/><path d="M266 539.5l-6-18.5h12zm-3.26-16.5l3.26 10.03 3.26-10.03z" stroke="#008a0e" stroke-width=".05" fill="#008a0e"/><use xlink:href="#d" transform="matrix(1,0,0,1,325.94030053518793,582.0833541103683) translate(0 14.222222222222223)"/><path d="M728 560c17.67 0 32 17.9 32 40s-14.33 40-32 40h-96c-17.67 0-32-17.9-32-40s14.33-40 32-40z" stroke="#3a414a" fill="#fff"/><use xlink:href="#p" transform="matrix(1,0,0,1,605,565) translate(13.307469135802465 26.52777777777778)"/><use xlink:href="#q" transform="matrix(1,0,0,1,605,565) translate(98.49265432098767 26.52777777777778)"/><use xlink:href="#r" transform="matrix(1,0,0,1,605,565) translate(62.87537037037037 53.19444444444445)"/><path d="M559.5 774.04l-.08 1.06-.26 1.06-.42 1.02-.57.94-.72.83-.83.72-.94.57-1 .42-1.08.26-1.06.08H518.5v-2h33.96l.82-.07.76-.18.73-.3.67-.4.6-.52.5-.6.4-.66.3-.73.2-.76.06-.82v-73.3h2zM581 601h-16.46l-.82.07-.76.18-.73.3-.67.4-.6.52-.5.6-.4.66-.3.73-.2.76-.06.82v73.3h-2v-73.38l.08-1.06.26-1.06.42-1.02.58-.94.7-.83.85-.72.92-.57 1.02-.42 1.06-.26 1.06-.08H581z" stroke="#e81313" stroke-width=".05" fill="#e81313"/><path d="M518.53 781h-1.14l.1-1-.08-.92 1.1-.08z" fill="#e81313"/><path d="M518.55 781.02h-1.18l.1-1.02-.08-.95 1.15-.08zm-1.1-1.92l.08.9-.1.98h1.07v-1.95z" stroke="#e81313" stroke-width=".05" fill="#e81313"/><path d="M596.26 600L582 604.63v-9.26z" fill="#e81313"/><path d="M599.5 600l-18.5 6v-12zm-16.5 3.26l10.03-3.26-10.03-3.26z" stroke="#e81313" stroke-width=".05" fill="#e81313"/><g><use xlink:href="#f" transform="matrix(1,0,0,1,546.6984327990691,679.3333333333334) translate(0 14.222222222222223)"/></g><defs><path fill="#3a414a" d="M135-143c-3-34-86-38-87 0 15 53 115 12 119 90S17 21 10-45l28-5c4 36 97 45 98 0-10-56-113-15-118-90-4-57 82-63 122-42 12 7 21 19 24 35" id="s"/><path fill="#3a414a" d="M100-194c63 0 86 42 84 106H49c0 40 14 67 53 68 26 1 43-12 49-29l28 8c-11 28-37 45-77 45C44 4 14-33 15-96c1-61 26-98 85-98zm52 81c6-60-76-77-97-28-3 7-6 17-6 28h103" id="t"/><path fill="#3a414a" d="M114-163C36-179 61-72 57 0H25l-1-190h30c1 12-1 29 2 39 6-27 23-49 58-41v29" id="u"/><path fill="#3a414a" d="M108 0H70L1-190h34L89-25l56-165h34" id="v"/><g id="a"><use transform="matrix(0.06172839506172839,0,0,0.06172839506172839,0,0)" xlink:href="#s"/><use transform="matrix(0.06172839506172839,0,0,0.06172839506172839,11.11111111111111,0)" xlink:href="#t"/><use transform="matrix(0.06172839506172839,0,0,0.06172839506172839,23.45679012345679,0)" xlink:href="#u"/><use transform="matrix(0.06172839506172839,0,0,0.06172839506172839,30.80246913580247,0)" xlink:href="#v"/><use transform="matrix(0.06172839506172839,0,0,0.06172839506172839,41.91358024691358,0)" xlink:href="#t"/><use transform="matrix(0.06172839506172839,0,0,0.06172839506172839,54.25925925925926,0)" xlink:href="#u"/></g><path fill="#3a414a" d="M24 0v-261h32V0H24" id="w"/><path fill="#3a414a" d="M100-194c62-1 85 37 85 99 1 63-27 99-86 99S16-35 15-95c0-66 28-99 85-99zM99-20c44 1 53-31 53-75 0-43-8-75-51-75s-53 32-53 75 10 74 51 75" id="x"/><path fill="#3a414a" d="M177-190C167-65 218 103 67 71c-23-6-38-20-44-43l32-5c15 47 100 32 89-28v-30C133-14 115 1 83 1 29 1 15-40 15-95c0-56 16-97 71-98 29-1 48 16 59 35 1-10 0-23 2-32h30zM94-22c36 0 50-32 50-73 0-42-14-75-50-75-39 0-46 34-46 75s6 73 46 73" id="y"/><g id="b"><use transform="matrix(0.06172839506172839,0,0,0.06172839506172839,0,0)" xlink:href="#w"/><use transform="matrix(0.06172839506172839,0,0,0.06172839506172839,4.876543209876543,0)" xlink:href="#x"/><use transform="matrix(0.06172839506172839,0,0,0.06172839506172839,17.22222222222222,0)" xlink:href="#y"/></g><path fill="#3a414a" d="M24-231v-30h32v30H24zM24 0v-190h32V0H24" id="z"/><path fill="#3a414a" d="M117-194c89-4 53 116 60 194h-32v-121c0-31-8-49-39-48C34-167 62-67 57 0H25l-1-190h30c1 10-1 24 2 32 11-22 29-35 61-36" id="A"/><g id="c"><use transform="matrix(0.06172839506172839,0,0,0.06172839506172839,0,0)" xlink:href="#z"/><use transform="matrix(0.06172839506172839,0,0,0.06172839506172839,4.876543209876543,0)" xlink:href="#A"/></g><path fill="#333" d="M146-102V0H94v-102L6-248h54l60 105 60-105h54" id="B"/><path fill="#333" d="M185-48c-13 30-37 53-82 52C43 2 14-33 14-96s30-98 90-98c62 0 83 45 84 108H66c0 31 8 55 39 56 18 0 30-7 34-22zm-45-69c5-46-57-63-70-21-2 6-4 13-4 21h74" id="C"/><path fill="#333" d="M137-138c1-29-70-34-71-4 15 46 118 7 119 86 1 83-164 76-172 9l43-7c4 19 20 25 44 25 33 8 57-30 24-41C81-84 22-81 20-136c-2-80 154-74 161-7" id="D"/><g id="d"><use transform="matrix(0.04938271604938272,0,0,0.04938271604938272,0,0)" xlink:href="#B"/><use transform="matrix(0.04938271604938272,0,0,0.04938271604938272,10.864197530864198,0)" xlink:href="#C"/><use transform="matrix(0.04938271604938272,0,0,0.04938271604938272,20.74074074074074,0)" xlink:href="#D"/></g><path fill="#3a414a" d="M232-93c-1 65-40 97-104 97C67 4 28-28 28-90v-158h33c8 89-33 224 67 224 102 0 64-133 71-224h33v155" id="E"/><g id="e"><use transform="matrix(0.06172839506172839,0,0,0.06172839506172839,0,0)" xlink:href="#E"/><use transform="matrix(0.06172839506172839,0,0,0.06172839506172839,15.987654320987653,0)" xlink:href="#s"/><use transform="matrix(0.06172839506172839,0,0,0.06172839506172839,27.098765432098766,0)" xlink:href="#t"/><use transform="matrix(0.06172839506172839,0,0,0.06172839506172839,39.44444444444444,0)" xlink:href="#u"/><use transform="matrix(0.06172839506172839,0,0,0.06172839506172839,46.79012345679012,0)" xlink:href="#s"/></g><path fill="#333" d="M175 0L67-191c6 58 2 128 3 191H24v-248h59L193-55c-6-58-2-129-3-193h46V0h-61" id="F"/><path fill="#333" d="M110-194c64 0 96 36 96 99 0 64-35 99-97 99-61 0-95-36-95-99 0-62 34-99 96-99zm-1 164c35 0 45-28 45-65 0-40-10-65-43-65-34 0-45 26-45 65 0 36 10 65 43 65" id="G"/><g id="f"><use transform="matrix(0.04938271604938272,0,0,0.04938271604938272,0,0)" xlink:href="#F"/><use transform="matrix(0.04938271604938272,0,0,0.04938271604938272,12.790123456790125,0)" xlink:href="#G"/></g><path fill="#3a414a" d="M30-248c118-7 216 8 213 122C240-48 200 0 122 0H30v-248zM63-27c89 8 146-16 146-99s-60-101-146-95v194" id="H"/><path fill="#3a414a" d="M141-36C126-15 110 5 73 4 37 3 15-17 15-53c-1-64 63-63 125-63 3-35-9-54-41-54-24 1-41 7-42 31l-33-3c5-37 33-52 76-52 45 0 72 20 72 64v82c-1 20 7 32 28 27v20c-31 9-61-2-59-35zM48-53c0 20 12 33 32 33 41-3 63-29 60-74-43 2-92-5-92 41" id="I"/><path fill="#3a414a" d="M179-190L93 31C79 59 56 82 12 73V49c39 6 53-20 64-50L1-190h34L92-34l54-156h33" id="J"/><g id="g"><use transform="matrix(0.06172839506172839,0,0,0.06172839506172839,0,0)" xlink:href="#H"/><use transform="matrix(0.06172839506172839,0,0,0.06172839506172839,15.987654320987653,0)" xlink:href="#t"/><use transform="matrix(0.06172839506172839,0,0,0.06172839506172839,28.333333333333332,0)" xlink:href="#w"/><use transform="matrix(0.06172839506172839,0,0,0.06172839506172839,33.20987654320987,0)" xlink:href="#I"/><use transform="matrix(0.06172839506172839,0,0,0.06172839506172839,45.55555555555555,0)" xlink:href="#J"/></g><path fill="#3a414a" d="M101-234c-31-9-42 10-38 44h38v23H63V0H32v-167H5v-23h27c-7-52 17-82 69-68v24" id="K"/><path fill="#3a414a" d="M85-194c31 0 48 13 60 33l-1-100h32l1 261h-30c-2-10 0-23-3-31C134-8 116 4 85 4 32 4 16-35 15-94c0-66 23-100 70-100zm9 24c-40 0-46 34-46 75 0 40 6 74 45 74 42 0 51-32 51-76 0-42-9-74-50-73" id="L"/><g id="h"><use transform="matrix(0.06172839506172839,0,0,0.06172839506172839,0,0)" xlink:href="#K"/><use transform="matrix(0.06172839506172839,0,0,0.06172839506172839,6.172839506172839,0)" xlink:href="#I"/><use transform="matrix(0.06172839506172839,0,0,0.06172839506172839,18.51851851851852,0)" xlink:href="#z"/><use transform="matrix(0.06172839506172839,0,0,0.06172839506172839,23.395061728395063,0)" xlink:href="#w"/><use transform="matrix(0.06172839506172839,0,0,0.06172839506172839,28.271604938271608,0)" xlink:href="#L"/></g><g id="i"><use transform="matrix(0.06172839506172839,0,0,0.06172839506172839,0,0)" xlink:href="#w"/><use transform="matrix(0.06172839506172839,0,0,0.06172839506172839,4.876543209876543,0)" xlink:href="#x"/><use transform="matrix(0.06172839506172839,0,0,0.06172839506172839,17.22222222222222,0)" xlink:href="#y"/></g><path fill="#3a414a" d="M84 4C-5 8 30-112 23-190h32v120c0 31 7 50 39 49 72-2 45-101 50-169h31l1 190h-30c-1-10 1-25-2-33-11 22-28 36-60 37" id="M"/><g id="j"><use transform="matrix(0.06172839506172839,0,0,0.06172839506172839,0,0)" xlink:href="#M"/><use transform="matrix(0.06172839506172839,0,0,0.06172839506172839,12.345679012345679,0)" xlink:href="#s"/><use transform="matrix(0.06172839506172839,0,0,0.06172839506172839,23.45679012345679,0)" xlink:href="#t"/><use transform="matrix(0.06172839506172839,0,0,0.06172839506172839,35.80246913580247,0)" xlink:href="#u"/></g><g id="k"><use transform="matrix(0.06172839506172839,0,0,0.06172839506172839,0,0)" xlink:href="#w"/><use transform="matrix(0.06172839506172839,0,0,0.06172839506172839,4.876543209876543,0)" xlink:href="#x"/><use transform="matrix(0.06172839506172839,0,0,0.06172839506172839,17.22222222222222,0)" xlink:href="#y"/><use transform="matrix(0.06172839506172839,0,0,0.06172839506172839,29.5679012345679,0)" xlink:href="#s"/></g><path fill="#3a414a" d="M106-169C34-169 62-67 57 0H25v-261h32l-1 103c12-21 28-36 61-36 89 0 53 116 60 194h-32v-121c2-32-8-49-39-48" id="N"/><path fill="#3a414a" d="M210-169c-67 3-38 105-44 169h-31v-121c0-29-5-50-35-48C34-165 62-65 56 0H25l-1-190h30c1 10-1 24 2 32 10-44 99-50 107 0 11-21 27-35 58-36 85-2 47 119 55 194h-31v-121c0-29-5-49-35-48" id="O"/><g id="l"><use transform="matrix(0.06172839506172839,0,0,0.06172839506172839,0,0)" xlink:href="#N"/><use transform="matrix(0.06172839506172839,0,0,0.06172839506172839,12.345679012345679,0)" xlink:href="#x"/><use transform="matrix(0.06172839506172839,0,0,0.06172839506172839,24.691358024691358,0)" xlink:href="#O"/><use transform="matrix(0.06172839506172839,0,0,0.06172839506172839,43.148148148148145,0)" xlink:href="#t"/></g><path fill="#3a414a" d="M59-47c-2 24 18 29 38 22v24C64 9 27 4 27-40v-127H5v-23h24l9-43h21v43h35v23H59v120" id="P"/><g id="m"><use transform="matrix(0.06172839506172839,0,0,0.06172839506172839,0,0)" xlink:href="#v"/><use transform="matrix(0.06172839506172839,0,0,0.06172839506172839,11.11111111111111,0)" xlink:href="#I"/><use transform="matrix(0.06172839506172839,0,0,0.06172839506172839,23.45679012345679,0)" xlink:href="#w"/><use transform="matrix(0.06172839506172839,0,0,0.06172839506172839,28.333333333333336,0)" xlink:href="#z"/><use transform="matrix(0.06172839506172839,0,0,0.06172839506172839,33.20987654320988,0)" xlink:href="#L"/><use transform="matrix(0.06172839506172839,0,0,0.06172839506172839,45.55555555555556,0)" xlink:href="#I"/><use transform="matrix(0.06172839506172839,0,0,0.06172839506172839,57.901234567901234,0)" xlink:href="#P"/><use transform="matrix(0.06172839506172839,0,0,0.06172839506172839,64.07407407407408,0)" xlink:href="#t"/></g><path fill="#3a414a" d="M96-169c-40 0-48 33-48 73s9 75 48 75c24 0 41-14 43-38l32 2c-6 37-31 61-74 61-59 0-76-41-82-99-10-93 101-131 147-64 4 7 5 14 7 22l-32 3c-4-21-16-35-41-35" id="Q"/><path fill="#3a414a" d="M143 0L79-87 56-68V0H24v-261h32v163l83-92h37l-77 82L181 0h-38" id="R"/><g id="n"><use transform="matrix(0.06172839506172839,0,0,0.06172839506172839,0,0)" xlink:href="#s"/><use transform="matrix(0.06172839506172839,0,0,0.06172839506172839,11.11111111111111,0)" xlink:href="#x"/><use transform="matrix(0.06172839506172839,0,0,0.06172839506172839,23.45679012345679,0)" xlink:href="#Q"/><use transform="matrix(0.06172839506172839,0,0,0.06172839506172839,34.5679012345679,0)" xlink:href="#R"/><use transform="matrix(0.06172839506172839,0,0,0.06172839506172839,45.67901234567901,0)" xlink:href="#t"/><use transform="matrix(0.06172839506172839,0,0,0.06172839506172839,58.02469135802469,0)" xlink:href="#P"/><use transform="matrix(0.06172839506172839,0,0,0.06172839506172839,64.19753086419753,0)" xlink:href="#s"/></g><g id="o"><use transform="matrix(0.06172839506172839,0,0,0.06172839506172839,0,0)" xlink:href="#H"/><use transform="matrix(0.06172839506172839,0,0,0.06172839506172839,15.987654320987653,0)" xlink:href="#t"/><use transform="matrix(0.06172839506172839,0,0,0.06172839506172839,28.333333333333332,0)" xlink:href="#Q"/><use transform="matrix(0.06172839506172839,0,0,0.06172839506172839,39.44444444444444,0)" xlink:href="#z"/><use transform="matrix(0.06172839506172839,0,0,0.06172839506172839,44.32098765432099,0)" xlink:href="#s"/><use transform="matrix(0.06172839506172839,0,0,0.06172839506172839,55.4320987654321,0)" xlink:href="#z"/><use transform="matrix(0.06172839506172839,0,0,0.06172839506172839,60.308641975308646,0)" xlink:href="#x"/><use transform="matrix(0.06172839506172839,0,0,0.06172839506172839,72.65432098765433,0)" xlink:href="#A"/></g><path fill="#3a414a" d="M185-189c-5-48-123-54-124 2 14 75 158 14 163 119 3 78-121 87-175 55-17-10-28-26-33-46l33-7c5 56 141 63 141-1 0-78-155-14-162-118-5-82 145-84 179-34 5 7 8 16 11 25" id="S"/><g id="p"><use transform="matrix(0.06172839506172839,0,0,0.06172839506172839,0,0)" xlink:href="#S"/><use transform="matrix(0.06172839506172839,0,0,0.06172839506172839,14.814814814814813,0)" xlink:href="#x"/><use transform="matrix(0.06172839506172839,0,0,0.06172839506172839,27.160493827160494,0)" xlink:href="#Q"/><use transform="matrix(0.06172839506172839,0,0,0.06172839506172839,38.27160493827161,0)" xlink:href="#R"/><use transform="matrix(0.06172839506172839,0,0,0.06172839506172839,49.38271604938272,0)" xlink:href="#t"/><use transform="matrix(0.06172839506172839,0,0,0.06172839506172839,61.7283950617284,0)" xlink:href="#P"/><use transform="matrix(0.06172839506172839,0,0,0.06172839506172839,67.90123456790124,0)" xlink:href="#s"/></g><g id="q"><use transform="matrix(0.06172839506172839,0,0,0.06172839506172839,0,0)" xlink:href="#P"/><use transform="matrix(0.06172839506172839,0,0,0.06172839506172839,6.172839506172839,0)" xlink:href="#M"/><use transform="matrix(0.06172839506172839,0,0,0.06172839506172839,18.51851851851852,0)" xlink:href="#u"/><use transform="matrix(0.06172839506172839,0,0,0.06172839506172839,25.864197530864196,0)" xlink:href="#A"/></g><g id="r"><use transform="matrix(0.06172839506172839,0,0,0.06172839506172839,0,0)" xlink:href="#x"/><use transform="matrix(0.06172839506172839,0,0,0.06172839506172839,12.345679012345679,0)" xlink:href="#K"/><use transform="matrix(0.06172839506172839,0,0,0.06172839506172839,18.08641975308642,0)" xlink:href="#K"/></g></defs></g></svg>