<svg xmlns="http://www.w3.org/2000/svg" xmlns:xlink="http://www.w3.org/1999/xlink" xmlns:lucid="lucid" width="881.33" height="1010.67"><g transform="translate(200 230.66666666666666)" lucid:page-tab-id="v0NxVe~i1ZJj"><path d="M181.33 15.33a6 6 0 0 1 6-6h148a6 6 0 0 1 6 6v108a6 6 0 0 1-6 6h-148a6 6 0 0 1-6-6z" stroke="#3a414a" fill="#fff"/><use xlink:href="#a" transform="matrix(1,0,0,1,193.33333333333331,21.333333333333343) translate(37.19753086419753 53.77777777777778)"/><path d="M256.53 212.93a8 8 0 0 1 9.6 0l70.4 52.8a4.5 4.5 0 0 1 0 7.2l-70.4 52.8a8 8 0 0 1-9.6 0l-70.4-52.8a4.5 4.5 0 0 1 0-7.2z" stroke="#3a414a" fill="#fff"/><use xlink:href="#b" transform="matrix(1,0,0,1,186.33333333333331,214.33333333333334) translate(48.52351851851852 59.02777777777778)"/><use xlink:href="#c" transform="matrix(1,0,0,1,186.33333333333331,214.33333333333334) translate(84.26425925925926 59.02777777777778)"/><path d="M248.67 130.33v34a6 6 0 0 0 6 6h.66a6 6 0 0 1 6 6v18.12" stroke="#3a414a" fill="none"/><path d="M249.17 130.35h-1v-.52h1z" stroke="#3a414a" stroke-width=".05" fill="#3a414a"/><path d="M261.33 209.2l-4.63-14.25h9.27z" stroke="#3a414a" fill="#3a414a"/><path d="M117.52 270.33h-17.18v-2h17.18zm65.3 0h-34.68v-2h34.7z" stroke="#008a0e" stroke-width=".05" fill="#008a0e"/><path d="M183.92 268.4l-.1.93.1.93-1.1.07v-2h1.12z" fill="#008a0e"/><path d="M183.94 268.42l-.08.9.08.96-1.16.08v-2.05h1.2zm-1.1-.06v1.95l1.05-.07-.1-.9.1-.92v-.04z" stroke="#008a0e" stroke-width=".05" fill="#008a0e"/><path d="M99.34 273.97l-14.27-4.64 14.27-4.63z" fill="#008a0e"/><path d="M100.34 275.35l-18.5-6.02 18.5-6zm-12.03-6.02l10.04 3.26v-6.53z" stroke="#008a0e" stroke-width=".05" fill="#008a0e"/><use xlink:href="#d" transform="matrix(1,0,0,1,117.52378979745457,258.6666666666667) translate(0 14.222222222222223)"/><path d="M-60 537.33c0 6.63-26.86 12-60 12s-60-5.37-60-12v-96c0-6.62 26.86-12 60-12s60 5.38 60 12z" stroke="#3a414a" fill="#fff"/><path d="M-60 441.33c0 6.63-26.86 12-60 12s-60-5.37-60-12" stroke="#3a414a" fill="none"/><use xlink:href="#e" transform="matrix(1,0,0,1,-175,458.33333333333337) translate(26.049382716049386 47.34027777777778)"/><path d="M408.03 270.33h-68.2v-2h68.2zm74.3 0h-50.7v-2h50.7z" stroke="#e81313" stroke-width=".05" fill="#e81313"/><path d="M339.86 270.33h-1.13l.1-1-.08-.92 1.1-.07z" fill="#e81313"/><path d="M339.9 270.36h-1.2l.1-1.03-.08-.94 1.17-.1zm-1.12-1.93l.08.9-.1.98h1.08v-1.94z" stroke="#e81313" stroke-width=".05" fill="#e81313"/><path d="M497.6 269.33l-14.27 4.64v-9.27z" fill="#e81313"/><path d="M500.83 269.33l-18.5 6.02v-12.03zm-16.5 3.26l10.03-3.27-10.03-3.26z" stroke="#e81313" stroke-width=".05" fill="#e81313"/><use xlink:href="#f" transform="matrix(1,0,0,1,408.03194668703406,258.6666666666667) translate(0 14.222222222222223)"/><path d="M-38.67 215.33a6 6 0 0 1 6-6h54c33.14 0 60 26.87 60 60 0 33.14-26.86 60-60 60h-54a6 6 0 0 1-6-6z" stroke="#3a414a" fill="#fff"/><use xlink:href="#g" transform="matrix(1,0,0,1,-33.666666666666686,214.33333333333334) translate(26.66666666666667 59.02777777777778)"/><path d="M21.33 330.33v43a6 6 0 0 1-6 6H-114a6 6 0 0 0-6 6v27.12" stroke="#3a414a" fill="none"/><path d="M21.83 330.35h-1v-.52h1z" stroke="#3a414a" stroke-width=".05" fill="#3a414a"/><path d="M-120 427.2l-4.64-14.25h9.28z" stroke="#3a414a" fill="#3a414a"/><path d="M501.33 215.33a6 6 0 0 1 6-6h148a6 6 0 0 1 6 6v108a6 6 0 0 1-6 6h-148a6 6 0 0 1-6-6z" stroke="#3a414a" fill="#fff"/><path d="M517.33 209.33v120m128-120v120" stroke="#3a414a" fill="none"/><use xlink:href="#h" transform="matrix(1,0,0,1,526.3333333333333,214.33333333333334) translate(5.123456790123456 59.44444444444444)"/><use xlink:href="#i" transform="matrix(1,0,0,1,526.3333333333333,214.33333333333334) translate(51.91358024691358 59.44444444444444)"/><use xlink:href="#c" transform="matrix(1,0,0,1,526.3333333333333,214.33333333333334) translate(87.65432098765432 59.44444444444444)"/><path d="M-78.67-184.75a6.8 6.8 0 0 1 5.96-6.74l148.08-18.43a5.3 5.3 0 0 1 5.95 5.26v108a6 6 0 0 1-6 6h-148a6 6 0 0 1-6-6z" stroke="#3a414a" fill="#fff"/><use xlink:href="#j" transform="matrix(1,0,0,1,-73.66666666666669,-185.66666666666666) translate(14.567901234567906 48.71527777777778)"/><use xlink:href="#k" transform="matrix(1,0,0,1,-73.66666666666669,-185.66666666666666) translate(63.88888888888889 48.71527777777778)"/><use xlink:href="#l" transform="matrix(1,0,0,1,-73.66666666666669,-185.66666666666666) translate(110.74074074074073 48.71527777777778)"/><path d="M82.33-150.5h93.25a6 6 0 0 1 6 6v57.83a6 6 0 0 0 6 6h67.75a6 6 0 0 1 6 6v67.12" stroke="#3a414a" fill="none"/><path d="M82.35-150h-.52v-1h.52z" stroke="#3a414a" stroke-width=".05" fill="#3a414a"/><path d="M261.33 7.2L256.7-7.04h9.27z" stroke="#3a414a" fill="#3a414a"/><path d="M21.33 330.33v43a6 6 0 0 0 6 6h68a6 6 0 0 1 6 6v27.12" stroke="#3a414a" fill="none"/><path d="M21.83 330.35h-1v-.52h1z" stroke="#3a414a" stroke-width=".05" fill="#3a414a"/><path d="M101.33 427.2l-4.63-14.25h9.27z" stroke="#3a414a" fill="#3a414a"/><path d="M21.33 435.33a6 6 0 0 1 6-6h148a6 6 0 0 1 6 6v108a6 6 0 0 1-6 6h-148a6 6 0 0 1-6-6z" stroke="#3a414a" fill="#fff"/><use xlink:href="#m" transform="matrix(1,0,0,1,33.333333333333314,441.33333333333337) translate(40.25308641975309 53.77777777777778)"/><path d="M295.2 432.93a8 8 0 0 1 9.6 0l70.4 52.8a4.5 4.5 0 0 1 0 7.2l-70.4 52.8a8 8 0 0 1-9.6 0l-70.4-52.8a4.5 4.5 0 0 1 0-7.2z" stroke="#3a414a" fill="#fff"/><use xlink:href="#n" transform="matrix(1,0,0,1,225,434.33333333333337) translate(52.22722222222222 45.27777777777778)"/><use xlink:href="#o" transform="matrix(1,0,0,1,225,434.33333333333337) translate(35.49882716049382 71.94444444444446)"/><path d="M182.33 489.33h23.78" stroke="#3a414a" fill="none"/><path d="M182.35 489.83h-.52v-1h.52z" stroke="#3a414a" stroke-width=".05" fill="#3a414a"/><path d="M220.88 489.33l-14.27 4.64v-9.27z" stroke="#3a414a" fill="#3a414a"/><path d="M348 680c17.67 0 32 17.9 32 40s-14.33 40-32 40h-96c-17.67 0-32-17.9-32-40s14.33-40 32-40z" stroke="#3a414a" fill="#fff"/><use xlink:href="#p" transform="matrix(1,0,0,1,225,685) translate(62.87037037037037 39.65277777777778)"/><path d="M418.42 634.6l-.26 1.06-.42 1.02-.57.94-.72.83-.83.72-.94.57-1 .42-1.08.26-1.06.08h-105.5l-.82.07-.76.18-.73.3-.67.4-.6.52-.5.6-.4.66-.3.73-.2.76-.06.82V661h-2v-15.54l.08-1.06.26-1.06.42-1.02.57-.94.72-.83.83-.72.94-.57 1.02-.42 1.06-.26 1.06-.08h105.5l.82-.07.77-.18.72-.3.67-.4.6-.52.5-.6.4-.66.3-.73.2-.76.03-.45h2zm-5.82-146.18l1.07.25 1 .42.95.57.83.7.72.85.57.93.42 1.02.26 1.07.08 1.05v117.2h-2V495.37l-.06-.82-.2-.76-.3-.74-.4-.66-.5-.6-.6-.5-.67-.42-.72-.3-.77-.18-.82-.07H378.5v-2h33.04z" stroke="#e81313" stroke-width=".05" fill="#e81313"/><path d="M378.53 490.33h-1.14l.1-1-.08-.92 1.1-.07z" fill="#e81313"/><path d="M378.55 490.36h-1.18l.1-1.03-.08-.94 1.15-.1zm-1.1-1.93l.08.9-.1.98h1.07v-1.94z" stroke="#e81313" stroke-width=".05" fill="#e81313"/><path d="M300 676.26L295.37 662h9.26z" fill="#e81313"/><path d="M300 679.5l-6-18.5h12zm-3.26-16.5l3.26 10.03 3.26-10.03z" stroke="#e81313" stroke-width=".05" fill="#e81313"/><use xlink:href="#f" transform="matrix(1,0,0,1,405.6996458432043,612.5010574895034) translate(0 14.222222222222223)"/><path d="M102.33 583.8l.07.82.18.76.3.72.4.67.52.6.6.5.66.42.73.3.75.17.82.06h79v2h-79.08l-1.06-.08-1.07-.26-1.02-.43-.93-.57-.84-.72-.7-.83-.6-.94-.4-1-.26-1.07-.1-1.06v-15.53h2zm198.67.07l-.08 1.06-.26 1.07-.42 1-.57.95-.72.83-.83.72-.94.57-1.02.42-1.06.25-1.06.08h-77.07v-2h77l.8-.06.77-.18.73-.3.67-.42.6-.5.5-.6.4-.68.3-.72.2-.76.06-.83v-34.97h2z" stroke="#008a0e" stroke-width=".05" fill="#008a0e"/><path d="M300 547.83l1-.06v1.1h-2v-1.1z" fill="#008a0e"/><path d="M300 547.8l1.02-.06v1.14h-2.04v-1.14zm-.98 1.04h1.96v-1.04l-.98.06-.98-.06z" stroke="#008a0e" stroke-width=".05" fill="#008a0e"/><path d="M105.97 567.34H96.7l4.63-14.27z" fill="#008a0e"/><path d="M107.34 568.34H95.33l6-18.5zm-9.27-2h6.52l-3.27-10.04z" stroke="#008a0e" stroke-width=".05" fill="#008a0e"/><g><use xlink:href="#q" transform="matrix(1,0,0,1,186.35749146209145,579.1666166666668) translate(0 14.222222222222223)"/></g><defs><path fill="#3a414a" d="M135-143c-3-34-86-38-87 0 15 53 115 12 119 90S17 21 10-45l28-5c4 36 97 45 98 0-10-56-113-15-118-90-4-57 82-63 122-42 12 7 21 19 24 35" id="r"/><path fill="#3a414a" d="M100-194c63 0 86 42 84 106H49c0 40 14 67 53 68 26 1 43-12 49-29l28 8c-11 28-37 45-77 45C44 4 14-33 15-96c1-61 26-98 85-98zm52 81c6-60-76-77-97-28-3 7-6 17-6 28h103" id="s"/><path fill="#3a414a" d="M114-163C36-179 61-72 57 0H25l-1-190h30c1 12-1 29 2 39 6-27 23-49 58-41v29" id="t"/><path fill="#3a414a" d="M108 0H70L1-190h34L89-25l56-165h34" id="u"/><g id="a"><use transform="matrix(0.06172839506172839,0,0,0.06172839506172839,0,0)" xlink:href="#r"/><use transform="matrix(0.06172839506172839,0,0,0.06172839506172839,11.11111111111111,0)" xlink:href="#s"/><use transform="matrix(0.06172839506172839,0,0,0.06172839506172839,23.45679012345679,0)" xlink:href="#t"/><use transform="matrix(0.06172839506172839,0,0,0.06172839506172839,30.80246913580247,0)" xlink:href="#u"/><use transform="matrix(0.06172839506172839,0,0,0.06172839506172839,41.91358024691358,0)" xlink:href="#s"/><use transform="matrix(0.06172839506172839,0,0,0.06172839506172839,54.25925925925926,0)" xlink:href="#t"/></g><path fill="#3a414a" d="M24 0v-261h32V0H24" id="v"/><path fill="#3a414a" d="M100-194c62-1 85 37 85 99 1 63-27 99-86 99S16-35 15-95c0-66 28-99 85-99zM99-20c44 1 53-31 53-75 0-43-8-75-51-75s-53 32-53 75 10 74 51 75" id="w"/><path fill="#3a414a" d="M177-190C167-65 218 103 67 71c-23-6-38-20-44-43l32-5c15 47 100 32 89-28v-30C133-14 115 1 83 1 29 1 15-40 15-95c0-56 16-97 71-98 29-1 48 16 59 35 1-10 0-23 2-32h30zM94-22c36 0 50-32 50-73 0-42-14-75-50-75-39 0-46 34-46 75s6 73 46 73" id="x"/><g id="b"><use transform="matrix(0.06172839506172839,0,0,0.06172839506172839,0,0)" xlink:href="#v"/><use transform="matrix(0.06172839506172839,0,0,0.06172839506172839,4.876543209876543,0)" xlink:href="#w"/><use transform="matrix(0.06172839506172839,0,0,0.06172839506172839,17.22222222222222,0)" xlink:href="#x"/></g><path fill="#3a414a" d="M24-231v-30h32v30H24zM24 0v-190h32V0H24" id="y"/><path fill="#3a414a" d="M117-194c89-4 53 116 60 194h-32v-121c0-31-8-49-39-48C34-167 62-67 57 0H25l-1-190h30c1 10-1 24 2 32 11-22 29-35 61-36" id="z"/><g id="c"><use transform="matrix(0.06172839506172839,0,0,0.06172839506172839,0,0)" xlink:href="#y"/><use transform="matrix(0.06172839506172839,0,0,0.06172839506172839,4.876543209876543,0)" xlink:href="#z"/></g><path d="M146-102V0H94v-102L6-248h54l60 105 60-105h54" id="A"/><path d="M185-48c-13 30-37 53-82 52C43 2 14-33 14-96s30-98 90-98c62 0 83 45 84 108H66c0 31 8 55 39 56 18 0 30-7 34-22zm-45-69c5-46-57-63-70-21-2 6-4 13-4 21h74" id="B"/><path d="M137-138c1-29-70-34-71-4 15 46 118 7 119 86 1 83-164 76-172 9l43-7c4 19 20 25 44 25 33 8 57-30 24-41C81-84 22-81 20-136c-2-80 154-74 161-7" id="C"/><g id="d"><use transform="matrix(0.04938271604938272,0,0,0.04938271604938272,0,0)" xlink:href="#A"/><use transform="matrix(0.04938271604938272,0,0,0.04938271604938272,10.864197530864198,0)" xlink:href="#B"/><use transform="matrix(0.04938271604938272,0,0,0.04938271604938272,20.74074074074074,0)" xlink:href="#C"/></g><path fill="#3a414a" d="M232-93c-1 65-40 97-104 97C67 4 28-28 28-90v-158h33c8 89-33 224 67 224 102 0 64-133 71-224h33v155" id="D"/><g id="e"><use transform="matrix(0.06172839506172839,0,0,0.06172839506172839,0,0)" xlink:href="#D"/><use transform="matrix(0.06172839506172839,0,0,0.06172839506172839,15.987654320987653,0)" xlink:href="#r"/><use transform="matrix(0.06172839506172839,0,0,0.06172839506172839,27.098765432098766,0)" xlink:href="#s"/><use transform="matrix(0.06172839506172839,0,0,0.06172839506172839,39.44444444444444,0)" xlink:href="#t"/><use transform="matrix(0.06172839506172839,0,0,0.06172839506172839,46.79012345679012,0)" xlink:href="#r"/></g><path fill="#333" d="M175 0L67-191c6 58 2 128 3 191H24v-248h59L193-55c-6-58-2-129-3-193h46V0h-61" id="E"/><path fill="#333" d="M110-194c64 0 96 36 96 99 0 64-35 99-97 99-61 0-95-36-95-99 0-62 34-99 96-99zm-1 164c35 0 45-28 45-65 0-40-10-65-43-65-34 0-45 26-45 65 0 36 10 65 43 65" id="F"/><g id="f"><use transform="matrix(0.04938271604938272,0,0,0.04938271604938272,0,0)" xlink:href="#E"/><use transform="matrix(0.04938271604938272,0,0,0.04938271604938272,12.790123456790125,0)" xlink:href="#F"/></g><path fill="#3a414a" d="M30-248c118-7 216 8 213 122C240-48 200 0 122 0H30v-248zM63-27c89 8 146-16 146-99s-60-101-146-95v194" id="G"/><path fill="#3a414a" d="M141-36C126-15 110 5 73 4 37 3 15-17 15-53c-1-64 63-63 125-63 3-35-9-54-41-54-24 1-41 7-42 31l-33-3c5-37 33-52 76-52 45 0 72 20 72 64v82c-1 20 7 32 28 27v20c-31 9-61-2-59-35zM48-53c0 20 12 33 32 33 41-3 63-29 60-74-43 2-92-5-92 41" id="H"/><path fill="#3a414a" d="M179-190L93 31C79 59 56 82 12 73V49c39 6 53-20 64-50L1-190h34L92-34l54-156h33" id="I"/><g id="g"><use transform="matrix(0.06172839506172839,0,0,0.06172839506172839,0,0)" xlink:href="#G"/><use transform="matrix(0.06172839506172839,0,0,0.06172839506172839,15.987654320987653,0)" xlink:href="#s"/><use transform="matrix(0.06172839506172839,0,0,0.06172839506172839,28.333333333333332,0)" xlink:href="#v"/><use transform="matrix(0.06172839506172839,0,0,0.06172839506172839,33.20987654320987,0)" xlink:href="#H"/><use transform="matrix(0.06172839506172839,0,0,0.06172839506172839,45.55555555555555,0)" xlink:href="#I"/></g><path fill="#3a414a" d="M101-234c-31-9-42 10-38 44h38v23H63V0H32v-167H5v-23h27c-7-52 17-82 69-68v24" id="J"/><path fill="#3a414a" d="M85-194c31 0 48 13 60 33l-1-100h32l1 261h-30c-2-10 0-23-3-31C134-8 116 4 85 4 32 4 16-35 15-94c0-66 23-100 70-100zm9 24c-40 0-46 34-46 75 0 40 6 74 45 74 42 0 51-32 51-76 0-42-9-74-50-73" id="K"/><g id="h"><use transform="matrix(0.06172839506172839,0,0,0.06172839506172839,0,0)" xlink:href="#J"/><use transform="matrix(0.06172839506172839,0,0,0.06172839506172839,6.172839506172839,0)" xlink:href="#H"/><use transform="matrix(0.06172839506172839,0,0,0.06172839506172839,18.51851851851852,0)" xlink:href="#y"/><use transform="matrix(0.06172839506172839,0,0,0.06172839506172839,23.395061728395063,0)" xlink:href="#v"/><use transform="matrix(0.06172839506172839,0,0,0.06172839506172839,28.271604938271608,0)" xlink:href="#K"/></g><g id="i"><use transform="matrix(0.06172839506172839,0,0,0.06172839506172839,0,0)" xlink:href="#v"/><use transform="matrix(0.06172839506172839,0,0,0.06172839506172839,4.876543209876543,0)" xlink:href="#w"/><use transform="matrix(0.06172839506172839,0,0,0.06172839506172839,17.22222222222222,0)" xlink:href="#x"/></g><path fill="#3a414a" d="M84 4C-5 8 30-112 23-190h32v120c0 31 7 50 39 49 72-2 45-101 50-169h31l1 190h-30c-1-10 1-25-2-33-11 22-28 36-60 37" id="L"/><g id="j"><use transform="matrix(0.06172839506172839,0,0,0.06172839506172839,0,0)" xlink:href="#L"/><use transform="matrix(0.06172839506172839,0,0,0.06172839506172839,12.345679012345679,0)" xlink:href="#r"/><use transform="matrix(0.06172839506172839,0,0,0.06172839506172839,23.45679012345679,0)" xlink:href="#s"/><use transform="matrix(0.06172839506172839,0,0,0.06172839506172839,35.80246913580247,0)" xlink:href="#t"/></g><g id="k"><use transform="matrix(0.06172839506172839,0,0,0.06172839506172839,0,0)" xlink:href="#r"/><use transform="matrix(0.06172839506172839,0,0,0.06172839506172839,11.11111111111111,0)" xlink:href="#y"/><use transform="matrix(0.06172839506172839,0,0,0.06172839506172839,15.987654320987653,0)" xlink:href="#x"/><use transform="matrix(0.06172839506172839,0,0,0.06172839506172839,28.333333333333332,0)" xlink:href="#z"/></g><path fill="#3a414a" d="M115-194c55 1 70 41 70 98S169 2 115 4C84 4 66-9 55-30l1 105H24l-1-265h31l2 30c10-21 28-34 59-34zm-8 174c40 0 45-34 45-75s-6-73-45-74c-42 0-51 32-51 76 0 43 10 73 51 73" id="M"/><g id="l"><use transform="matrix(0.06172839506172839,0,0,0.06172839506172839,0,0)" xlink:href="#L"/><use transform="matrix(0.06172839506172839,0,0,0.06172839506172839,12.345679012345679,0)" xlink:href="#M"/></g><path fill="#3a414a" d="M106-169C34-169 62-67 57 0H25v-261h32l-1 103c12-21 28-36 61-36 89 0 53 116 60 194h-32v-121c2-32-8-49-39-48" id="N"/><path fill="#3a414a" d="M210-169c-67 3-38 105-44 169h-31v-121c0-29-5-50-35-48C34-165 62-65 56 0H25l-1-190h30c1 10-1 24 2 32 10-44 99-50 107 0 11-21 27-35 58-36 85-2 47 119 55 194h-31v-121c0-29-5-49-35-48" id="O"/><g id="m"><use transform="matrix(0.06172839506172839,0,0,0.06172839506172839,0,0)" xlink:href="#N"/><use transform="matrix(0.06172839506172839,0,0,0.06172839506172839,12.345679012345679,0)" xlink:href="#w"/><use transform="matrix(0.06172839506172839,0,0,0.06172839506172839,24.691358024691358,0)" xlink:href="#O"/><use transform="matrix(0.06172839506172839,0,0,0.06172839506172839,43.148148148148145,0)" xlink:href="#s"/></g><g id="n"><use transform="matrix(0.06172839506172839,0,0,0.06172839506172839,0,0)" xlink:href="#u"/><use transform="matrix(0.06172839506172839,0,0,0.06172839506172839,11.11111111111111,0)" xlink:href="#H"/><use transform="matrix(0.06172839506172839,0,0,0.06172839506172839,23.45679012345679,0)" xlink:href="#v"/><use transform="matrix(0.06172839506172839,0,0,0.06172839506172839,28.333333333333336,0)" xlink:href="#y"/><use transform="matrix(0.06172839506172839,0,0,0.06172839506172839,33.20987654320988,0)" xlink:href="#K"/></g><path fill="#3a414a" d="M185-189c-5-48-123-54-124 2 14 75 158 14 163 119 3 78-121 87-175 55-17-10-28-26-33-46l33-7c5 56 141 63 141-1 0-78-155-14-162-118-5-82 145-84 179-34 5 7 8 16 11 25" id="P"/><path fill="#3a414a" d="M96-169c-40 0-48 33-48 73s9 75 48 75c24 0 41-14 43-38l32 2c-6 37-31 61-74 61-59 0-76-41-82-99-10-93 101-131 147-64 4 7 5 14 7 22l-32 3c-4-21-16-35-41-35" id="Q"/><path fill="#3a414a" d="M143 0L79-87 56-68V0H24v-261h32v163l83-92h37l-77 82L181 0h-38" id="R"/><path fill="#3a414a" d="M59-47c-2 24 18 29 38 22v24C64 9 27 4 27-40v-127H5v-23h24l9-43h21v43h35v23H59v120" id="S"/><g id="o"><use transform="matrix(0.06172839506172839,0,0,0.06172839506172839,0,0)" xlink:href="#P"/><use transform="matrix(0.06172839506172839,0,0,0.06172839506172839,14.814814814814813,0)" xlink:href="#w"/><use transform="matrix(0.06172839506172839,0,0,0.06172839506172839,27.160493827160494,0)" xlink:href="#Q"/><use transform="matrix(0.06172839506172839,0,0,0.06172839506172839,38.27160493827161,0)" xlink:href="#R"/><use transform="matrix(0.06172839506172839,0,0,0.06172839506172839,49.38271604938272,0)" xlink:href="#s"/><use transform="matrix(0.06172839506172839,0,0,0.06172839506172839,61.7283950617284,0)" xlink:href="#S"/><use transform="matrix(0.06172839506172839,0,0,0.06172839506172839,67.90123456790124,0)" xlink:href="#r"/></g><g id="p"><use transform="matrix(0.06172839506172839,0,0,0.06172839506172839,0,0)" xlink:href="#w"/><use transform="matrix(0.06172839506172839,0,0,0.06172839506172839,12.345679012345679,0)" xlink:href="#J"/><use transform="matrix(0.06172839506172839,0,0,0.06172839506172839,18.08641975308642,0)" xlink:href="#J"/></g><path fill="#333" d="M146-102V0H94v-102L6-248h54l60 105 60-105h54" id="T"/><path fill="#333" d="M185-48c-13 30-37 53-82 52C43 2 14-33 14-96s30-98 90-98c62 0 83 45 84 108H66c0 31 8 55 39 56 18 0 30-7 34-22zm-45-69c5-46-57-63-70-21-2 6-4 13-4 21h74" id="U"/><path fill="#333" d="M137-138c1-29-70-34-71-4 15 46 118 7 119 86 1 83-164 76-172 9l43-7c4 19 20 25 44 25 33 8 57-30 24-41C81-84 22-81 20-136c-2-80 154-74 161-7" id="V"/><g id="q"><use transform="matrix(0.04938271604938272,0,0,0.04938271604938272,0,0)" xlink:href="#T"/><use transform="matrix(0.04938271604938272,0,0,0.04938271604938272,10.864197530864198,0)" xlink:href="#U"/><use transform="matrix(0.04938271604938272,0,0,0.04938271604938272,20.74074074074074,0)" xlink:href="#V"/></g></defs></g></svg>