<svg xmlns="http://www.w3.org/2000/svg" xmlns:xlink="http://www.w3.org/1999/xlink" xmlns:lucid="lucid" width="923.81" height="1100"><g transform="translate(20 20)" lucid:page-tab-id="NoOxqaBjnZZH"><path d="M0 6a6 6 0 0 1 6-6h148a6 6 0 0 1 6 6v108a6 6 0 0 1-6 6H6a6 6 0 0 1-6-6z" stroke="#3a414a" fill="#fff"/><use xlink:href="#a" transform="matrix(1,0,0,1,12,12) translate(37.19753086419753 53.77777777777778)"/><path d="M0 326a6 6 0 0 1 6-6h148a6 6 0 0 1 6 6v108a6 6 0 0 1-6 6H6a6 6 0 0 1-6-6z" stroke="#3a414a" fill="#fff"/><use xlink:href="#b" transform="matrix(1,0,0,1,12,332) translate(42.135802469135804 53.77777777777778)"/><path d="M400 86a6 6 0 0 1 6-6h148a6 6 0 0 1 6 6v108a6 6 0 0 1-6 6H406a6 6 0 0 1-6-6z" stroke="#3a414a" fill="#fff"/><path d="M416 80v120M544 80v120" stroke="#3a414a" fill="none"/><use xlink:href="#c" transform="matrix(1,0,0,1,425,85) translate(25.99259259259259 59.266666666666666)"/><path d="M429.18 285.3A10 10 0 0 1 438 280h84a10 10 0 0 1 8.82 5.3l26.36 49.4a11.25 11.25 0 0 1 0 10.6l-26.36 49.4A10 10 0 0 1 522 400h-84a10 10 0 0 1-8.82-5.3l-26.36-49.4a11.25 11.25 0 0 1 0-10.6z" stroke="#3a414a" fill="#fff"/><use xlink:href="#d" transform="matrix(1,0,0,1,405,285) translate(51.60993827160494 59.02777777777778)"/><path d="M800 688c0 6.63-26.86 12-60 12s-60-5.37-60-12v-96c0-6.63 26.86-12 60-12s60 5.37 60 12z" stroke="#3a414a" fill="#fff"/><path d="M800 592c0 6.63-26.86 12-60 12s-60-5.37-60-12" stroke="#3a414a" fill="none"/><use xlink:href="#e" transform="matrix(1,0,0,1,685,609) translate(7.5 47.34027777777778)"/><path d="M755.2 403.6a8 8 0 0 1 9.6 0l70.4 52.8a4.5 4.5 0 0 1 0 7.2l-70.4 52.8a8 8 0 0 1-9.6 0l-70.4-52.8a4.5 4.5 0 0 1 0-7.2z" stroke="#3a414a" fill="#fff"/><use xlink:href="#f" transform="matrix(1,0,0,1,685,405) translate(32.50499999999999 59.02777777777778)"/><path d="M81 318.5h-2v-87.83h2zm0-109.17h-2V139h2z" stroke="#6db1ff" stroke-width=".05" fill="#6db1ff"/><path d="M81 319.5h-2v-1.03h2z" fill="#6db1ff"/><path d="M81.03 319.52h-2.06v-1.07h2.06zm-2-1.02v.98h1.94v-.98z" stroke="#6db1ff" stroke-width=".05" fill="#6db1ff"/><path d="M84.64 138h-9.28L80 123.74z" fill="#6db1ff"/><path d="M86 139H74l6-18.5zm-9.26-2h6.52L80 126.97z" stroke="#6db1ff" stroke-width=".05" fill="#6db1ff"/><use xlink:href="#g" transform="matrix(1,0,0,1,60.79012345679012,209.33333333333334) translate(0 14.222222222222223)"/><path d="M281 133.96l.06.82.2.76.3.73.4.67.5.6.6.5.67.4.73.3.76.2.82.06H381v2h-95.04l-1.06-.08-1.06-.26-1.02-.42-.94-.57-.83-.72-.72-.83-.57-.94-.42-1.02-.26-1.06-.08-1.06v-23.37h2zm-5.9-74.88l1.06.26 1.02.42.94.57.83.72.72.83.57.94.42 1.02.26 1.06.08 1.06v23.37h-2v-23.3l-.06-.8-.2-.77-.3-.73-.4-.67-.5-.6-.6-.5-.67-.4-.73-.3-.76-.2-.82-.06H161.5v-2h112.54z" stroke="#9391ff" stroke-width=".05" fill="#9391ff"/><path d="M161.53 61h-1.03v-2h1.03z" fill="#9391ff"/><path d="M161.55 61.02h-1.08v-2.05h1.08zm-1.03-2v1.95h.98v-1.95z" stroke="#9391ff" stroke-width=".05" fill="#9391ff"/><path d="M396.26 140L382 144.63v-9.26z" fill="#9391ff"/><path d="M399.5 140l-18.5 6v-12zm-16.5 3.26l10.03-3.26-10.03-3.26z" stroke="#9391ff" stroke-width=".05" fill="#9391ff"/><use xlink:href="#h" transform="matrix(1,0,0,1,253.3827160493827,89.33333333333333) translate(0 14.222222222222223)"/><use xlink:href="#i" transform="matrix(1,0,0,1,253.3827160493827,89.33333333333333) translate(43.35802469135803 14.222222222222223)"/><path d="M481 261h-2v-10.33h2zm0-31.67h-2V201.5h2z" stroke="#b8f5ed" stroke-width=".05" fill="#b8f5ed"/><path d="M481 201.53h-2v-1.03h2z" fill="#b8f5ed"/><path d="M481.02 201.55h-2.04v-1.08h2.04zm-2-1.03v.98h1.96v-.97z" stroke="#b8f5ed" stroke-width=".05" fill="#b8f5ed"/><path d="M480 276.26L475.37 262h9.26z" fill="#b8f5ed"/><path d="M480 279.5l-6-18.5h12zm-3.26-16.5l3.26 10.03 3.26-10.03z" stroke="#b8f5ed" stroke-width=".05" fill="#b8f5ed"/><use xlink:href="#h" transform="matrix(1,0,0,1,453.38271604938274,229.33332158333337) translate(0 14.222222222222223)"/><use xlink:href="#j" transform="matrix(1,0,0,1,453.38271604938274,229.33332158333337) translate(43.35802469135803 14.222222222222223)"/><path d="M621.75 453.96l.06.82.2.76.3.73.4.67.52.6.6.5.66.4.73.3.77.2.82.06H664v2h-37.3l-1.05-.08-1.06-.26-1.03-.42-.94-.57-.83-.72-.72-.83-.57-.94-.4-1.02-.27-1.06-.08-1.06v-43.37h2zm-5.9-114.88l1.06.26 1.03.42.94.57.83.72.7.83.6.94.4 1.02.27 1.06.08 1.06v43.37h-2v-43.3l-.07-.8-.18-.77-.3-.73-.4-.67-.52-.6-.6-.5-.66-.4-.73-.3-.77-.2-.82-.06H560v-2h54.8z" stroke="#008a0e" stroke-width=".05" fill="#008a0e"/><path d="M560.03 341h-1.08l.05-1-.05-1h1.08z" fill="#008a0e"/><path d="M560.05 341.02h-1.13l.06-1.02-.06-1.02h1.13zm-1.07-2l.05.98-.05.98H560v-1.96z" stroke="#008a0e" stroke-width=".05" fill="#008a0e"/><path d="M679.26 460L665 464.63v-9.26z" fill="#008a0e"/><path d="M682.5 460l-18.5 6v-12zm-16.5 3.26l10.03-3.26-10.03-3.26z" stroke="#008a0e" stroke-width=".05" fill="#008a0e"/><use xlink:href="#k" transform="matrix(1,0,0,1,605.4405948078797,389.3333333333333) translate(0 14.222222222222223)"/><path d="M878.5 634.04l-.08 1.06-.26 1.06-.42 1.02-.57.94-.72.83-.83.72-.94.57-1 .42-1.08.26-1.06.08H819v-2h52.46l.82-.07.77-.18.72-.3.67-.4.6-.52.5-.6.4-.66.3-.73.2-.76.06-.82v-54.8h2zm-5.9-174.96l1.07.26 1 .42.95.57.83.72.72.83.57.94.42 1.02.26 1.06.08 1.06v91.87h-2v-91.8l-.06-.8-.2-.77-.3-.73-.4-.67-.5-.6-.6-.5-.67-.4-.72-.3-.77-.2-.82-.06H838.5v-2h33.04z" stroke="#008a0e" stroke-width=".05" fill="#008a0e"/><path d="M838.53 461h-1.14l.1-1-.08-.92 1.1-.08z" fill="#008a0e"/><path d="M838.55 461.02h-1.18l.1-1.02-.08-.95 1.15-.08zm-1.1-1.92l.08.9-.1.98h1.07v-1.95z" stroke="#008a0e" stroke-width=".05" fill="#008a0e"/><path d="M818 644.63L803.74 640l14.26-4.63z" fill="#008a0e"/><path d="M819 646l-18.5-6 18.5-6zm-12.03-6l10.03 3.26v-6.52z" stroke="#008a0e" stroke-width=".05" fill="#008a0e"/><use xlink:href="#k" transform="matrix(1,0,0,1,862.1934730036982,557.8343908228368) translate(0 14.222222222222223)"/><path d="M422.5 453.96l.06.82.2.76.3.73.4.67.5.6.6.5.67.4.72.3.77.2.82.06H681.5v2H427.46l-1.06-.08-1.06-.26-1.02-.42-.94-.57-.83-.72-.72-.83-.57-.94-.42-1.02-.26-1.06-.08-1.06v-23.37h2zm-5.9-74.88l1.06.26 1.02.42.94.57.83.72.72.83.57.94.42 1.02.26 1.06.08 1.06v23.37h-2v-23.3l-.07-.8-.18-.77-.3-.73-.4-.67-.52-.6-.6-.5-.66-.4-.73-.3-.76-.2-.82-.06H179v-2h236.54z" stroke="#e81313" stroke-width=".05" fill="#e81313"/><path d="M682.58 459.08l-.08.92.08.92-1.1.08v-2h1.13z" fill="#e81313"/><path d="M682.6 459.08l-.08.92.1.95-1.17.08v-2.05h1.2zm-1.1-.06v1.95l1.06-.07-.1-.9.1-.93v-.05z" stroke="#e81313" stroke-width=".05" fill="#e81313"/><path d="M178 384.63L163.74 380l14.26-4.63z" fill="#e81313"/><path d="M179 386l-18.5-6 18.5-6zm-12.03-6l10.03 3.26v-6.52z" stroke="#e81313" stroke-width=".05" fill="#e81313"/><use xlink:href="#l" transform="matrix(1,0,0,1,409.6964483746942,409.3333333333333) translate(0 14.222222222222223)"/><path d="M0 566a6 6 0 0 1 6-6h148a6 6 0 0 1 6 6v114c-26.72-20.04-43.36-20.04-53.44-20.04-16 0-37.28 20.04-53.28 20.04-9.92 0-26.72 0-53.28-20.04z" stroke="#3a414a" fill="#fff"/><use xlink:href="#m" transform="matrix(1,0,0,1,5,565) translate(45.4320987654321 48.71527777777778)"/><path d="M853.7 781H519v-2h334.7zm24.8-11.67h-2V579.17h2zm-5.9-310.25l1.07.26 1 .42.95.57.83.72.72.83.57.94.42 1.02.26 1.06.08 1.06v91.87h-2v-91.8l-.06-.8-.2-.77-.3-.73-.4-.67-.5-.6-.6-.5-.67-.4-.72-.3-.77-.2-.82-.06H838.5v-2h33.04z" stroke="#008a0e" stroke-width=".05" fill="#008a0e"/><path d="M838.53 461h-1.14l.1-1-.08-.92 1.1-.08z" fill="#008a0e"/><path d="M838.55 461.02h-1.18l.1-1.02-.08-.95 1.15-.08zm-1.1-1.92l.08.9-.1.98h1.07v-1.95z" stroke="#008a0e" stroke-width=".05" fill="#008a0e"/><path d="M518 784.63L503.74 780l14.26-4.63z" fill="#008a0e"/><path d="M519 786l-18.5-6 18.5-6zm-12.03-6l10.03 3.26v-6.52z" stroke="#008a0e" stroke-width=".05" fill="#008a0e"/><use xlink:href="#k" transform="matrix(1,0,0,1,853.692571443128,769.3333333333334) translate(0 14.222222222222223)"/><path d="M528 580c17.67 0 32 17.9 32 40s-14.33 40-32 40h-96c-17.67 0-32-17.9-32-40s14.33-40 32-40z" stroke="#3a414a" fill="#fff"/><use xlink:href="#n" transform="matrix(1,0,0,1,405,585) translate(55.24691358024691 39.65277777777778)"/><path d="M608.2 550H486.04l-.82.07-.76.18-.73.3-.67.4-.6.52-.5.6-.4.66-.3.73-.2.76-.06.82V561h-2v-6.04l.08-1.06.26-1.06.42-1.02.57-.94.72-.83.83-.7.94-.6 1.02-.4 1.06-.27 1.06-.08H608.2zm152.8-6.96l-.08 1.06-.26 1.06-.42 1.02-.57.94-.72.83-.83.72-.94.57-1.02.42-1.06.26-1.06.08H631.8v-2h122.16l.82-.06.76-.2.73-.3.67-.4.6-.5.5-.6.4-.67.3-.73.2-.76.06-.82V519.5h2z" stroke="#e81313" stroke-width=".05" fill="#e81313"/><path d="M760 518.5l1-.06v1.1h-2v-1.1z" fill="#e81313"/><path d="M760 518.48l1.02-.07v1.15H759v-1.14zm-.98 1.02H761v-1.04l-.98.07-.98-.07z" stroke="#e81313" stroke-width=".05" fill="#e81313"/><path d="M480 576.26L475.37 562h9.26z" fill="#e81313"/><path d="M480 579.5l-6-18.5h12zm-3.26-16.5l3.26 10.03 3.26-10.03z" stroke="#e81313" stroke-width=".05" fill="#e81313"/><use xlink:href="#l" transform="matrix(1,0,0,1,608.1975308641976,538.3338415626) translate(0 14.222222222222223)"/><path d="M380 726a6 6 0 0 1 6-6h54c33.14 0 60 26.86 60 60s-26.86 60-60 60h-54a6 6 0 0 1-6-6z" stroke="#3a414a" fill="#fff"/><use xlink:href="#o" transform="matrix(1,0,0,1,385,725) translate(26.66666666666667 59.02777777777778)"/><path d="M528 980c17.67 0 32 17.9 32 40s-14.33 40-32 40h-96c-17.67 0-32-17.9-32-40s14.33-40 32-40z" stroke="#3a414a" fill="#fff"/><use xlink:href="#p" transform="matrix(1,0,0,1,405,985) translate(46.01851851851852 39.65277777777778)"/><path d="M476.16 909.34l1.02.42.94.57.83.72.72.83.57.94.42 1.02.26 1.06.08 1.06V961h-2v-44.96l-.06-.82-.2-.76-.3-.73-.4-.67-.5-.6-.6-.5-.67-.4-.73-.3-.23-.07v-2.07zM441 903.96l.06.82.2.76.3.73.4.67.5.6.6.5.67.4.73.3.23.07v2.07l-.86-.2-1.02-.43-.94-.57-.83-.72-.72-.83-.57-.94-.42-1.02-.26-1.06-.08-1.06V841.5h2z" stroke="#008a0e" stroke-width=".05" fill="#008a0e"/><path d="M441 841.53h-2v-1.03h1l1-.03z" fill="#008a0e"/><path d="M441.02 841.55h-2.04v-1.07H440l1.02-.04zm-1-1.02h-1v.97h1.96v-1z" stroke="#008a0e" stroke-width=".05" fill="#008a0e"/><path d="M480 976.26L475.37 962h9.26z" fill="#008a0e"/><path d="M480 979.5l-6-18.5h12zm-3.26-16.5l3.26 10.03 3.26-10.03z" stroke="#008a0e" stroke-width=".05" fill="#008a0e"/><use xlink:href="#k" transform="matrix(1,0,0,1,444.69135802469134,899.3333333333334) translate(0 14.222222222222223)"/><path d="M281 1013.96l.06.82.2.76.3.73.4.67.5.6.6.5.67.4.73.3.76.2.82.06H398.5v2H285.96l-1.06-.08-1.06-.26-1.02-.42-.94-.57-.83-.72-.72-.83-.57-.94-.42-1.02-.26-1.06-.08-1.06V830.67h2zm-5.9-394.88l1.06.26 1.02.42.94.57.83.72.72.83.57.94.42 1.02.26 1.06.08 1.06v183.37h-2v-183.3l-.06-.8-.2-.77-.3-.73-.4-.67-.5-.6-.6-.5-.67-.4-.73-.3-.76-.2-.82-.06H179v-2h95.04z" stroke="#008a0e" stroke-width=".05" fill="#008a0e"/><path d="M399.5 1020l.04 1h-1.07v-2h1.1z" fill="#008a0e"/><path d="M399.52 1020l.04 1.02h-1.1V1019h1.13zm-1.02-.98v1.96h1l-.03-1 .06-.96z" stroke="#008a0e" stroke-width=".05" fill="#008a0e"/><path d="M178 624.63L163.74 620l14.26-4.63z" fill="#008a0e"/><path d="M179 626l-18.5-6 18.5-6zm-12.03-6l10.03 3.26v-6.52z" stroke="#008a0e" stroke-width=".05" fill="#008a0e"/><g><use xlink:href="#k" transform="matrix(1,0,0,1,264.6911761542701,809.3333333333334) translate(0 14.222222222222223)"/></g><defs><path fill="#3a414a" d="M135-143c-3-34-86-38-87 0 15 53 115 12 119 90S17 21 10-45l28-5c4 36 97 45 98 0-10-56-113-15-118-90-4-57 82-63 122-42 12 7 21 19 24 35" id="q"/><path fill="#3a414a" d="M100-194c63 0 86 42 84 106H49c0 40 14 67 53 68 26 1 43-12 49-29l28 8c-11 28-37 45-77 45C44 4 14-33 15-96c1-61 26-98 85-98zm52 81c6-60-76-77-97-28-3 7-6 17-6 28h103" id="r"/><path fill="#3a414a" d="M114-163C36-179 61-72 57 0H25l-1-190h30c1 12-1 29 2 39 6-27 23-49 58-41v29" id="s"/><path fill="#3a414a" d="M108 0H70L1-190h34L89-25l56-165h34" id="t"/><g id="a"><use transform="matrix(0.06172839506172839,0,0,0.06172839506172839,0,0)" xlink:href="#q"/><use transform="matrix(0.06172839506172839,0,0,0.06172839506172839,11.11111111111111,0)" xlink:href="#r"/><use transform="matrix(0.06172839506172839,0,0,0.06172839506172839,23.45679012345679,0)" xlink:href="#s"/><use transform="matrix(0.06172839506172839,0,0,0.06172839506172839,30.80246913580247,0)" xlink:href="#t"/><use transform="matrix(0.06172839506172839,0,0,0.06172839506172839,41.91358024691358,0)" xlink:href="#r"/><use transform="matrix(0.06172839506172839,0,0,0.06172839506172839,54.25925925925926,0)" xlink:href="#s"/></g><path fill="#3a414a" d="M96-169c-40 0-48 33-48 73s9 75 48 75c24 0 41-14 43-38l32 2c-6 37-31 61-74 61-59 0-76-41-82-99-10-93 101-131 147-64 4 7 5 14 7 22l-32 3c-4-21-16-35-41-35" id="u"/><path fill="#3a414a" d="M24 0v-261h32V0H24" id="v"/><path fill="#3a414a" d="M24-231v-30h32v30H24zM24 0v-190h32V0H24" id="w"/><path fill="#3a414a" d="M117-194c89-4 53 116 60 194h-32v-121c0-31-8-49-39-48C34-167 62-67 57 0H25l-1-190h30c1 10-1 24 2 32 11-22 29-35 61-36" id="x"/><path fill="#3a414a" d="M59-47c-2 24 18 29 38 22v24C64 9 27 4 27-40v-127H5v-23h24l9-43h21v43h35v23H59v120" id="y"/><g id="b"><use transform="matrix(0.06172839506172839,0,0,0.06172839506172839,0,0)" xlink:href="#u"/><use transform="matrix(0.06172839506172839,0,0,0.06172839506172839,11.11111111111111,0)" xlink:href="#v"/><use transform="matrix(0.06172839506172839,0,0,0.06172839506172839,15.987654320987653,0)" xlink:href="#w"/><use transform="matrix(0.06172839506172839,0,0,0.06172839506172839,20.864197530864196,0)" xlink:href="#r"/><use transform="matrix(0.06172839506172839,0,0,0.06172839506172839,33.20987654320987,0)" xlink:href="#x"/><use transform="matrix(0.06172839506172839,0,0,0.06172839506172839,45.55555555555555,0)" xlink:href="#y"/></g><path d="M85-194c31 0 48 13 60 33l-1-100h32l1 261h-30c-2-10 0-23-3-31C134-8 116 4 85 4 32 4 16-35 15-94c0-66 23-100 70-100zm9 24c-40 0-46 34-46 75 0 40 6 74 45 74 42 0 51-32 51-76 0-42-9-74-50-73" id="z"/><path d="M100-194c63 0 86 42 84 106H49c0 40 14 67 53 68 26 1 43-12 49-29l28 8c-11 28-37 45-77 45C44 4 14-33 15-96c1-61 26-98 85-98zm52 81c6-60-76-77-97-28-3 7-6 17-6 28h103" id="A"/><path d="M24 0v-261h32V0H24" id="B"/><path d="M59-47c-2 24 18 29 38 22v24C64 9 27 4 27-40v-127H5v-23h24l9-43h21v43h35v23H59v120" id="C"/><g id="c"><use transform="matrix(0.05925925925925927,0,0,0.05925925925925927,0,0)" xlink:href="#z"/><use transform="matrix(0.05925925925925927,0,0,0.05925925925925927,11.851851851851853,0)" xlink:href="#A"/><use transform="matrix(0.05925925925925927,0,0,0.05925925925925927,23.703703703703706,0)" xlink:href="#B"/><use transform="matrix(0.05925925925925927,0,0,0.05925925925925927,28.385185185185186,0)" xlink:href="#A"/><use transform="matrix(0.05925925925925927,0,0,0.05925925925925927,40.23703703703704,0)" xlink:href="#C"/><use transform="matrix(0.05925925925925927,0,0,0.05925925925925927,46.162962962962965,0)" xlink:href="#A"/></g><path fill="#3a414a" d="M100-194c62-1 85 37 85 99 1 63-27 99-86 99S16-35 15-95c0-66 28-99 85-99zM99-20c44 1 53-31 53-75 0-43-8-75-51-75s-53 32-53 75 10 74 51 75" id="D"/><path fill="#3a414a" d="M177-190C167-65 218 103 67 71c-23-6-38-20-44-43l32-5c15 47 100 32 89-28v-30C133-14 115 1 83 1 29 1 15-40 15-95c0-56 16-97 71-98 29-1 48 16 59 35 1-10 0-23 2-32h30zM94-22c36 0 50-32 50-73 0-42-14-75-50-75-39 0-46 34-46 75s6 73 46 73" id="E"/><g id="d"><use transform="matrix(0.06172839506172839,0,0,0.06172839506172839,0,0)" xlink:href="#v"/><use transform="matrix(0.06172839506172839,0,0,0.06172839506172839,4.876543209876543,0)" xlink:href="#D"/><use transform="matrix(0.06172839506172839,0,0,0.06172839506172839,17.22222222222222,0)" xlink:href="#E"/><use transform="matrix(0.06172839506172839,0,0,0.06172839506172839,29.5679012345679,0)" xlink:href="#w"/><use transform="matrix(0.06172839506172839,0,0,0.06172839506172839,34.44444444444444,0)" xlink:href="#x"/></g><path fill="#3a414a" d="M30-248c118-7 216 8 213 122C240-48 200 0 122 0H30v-248zM63-27c89 8 146-16 146-99s-60-101-146-95v194" id="F"/><path fill="#3a414a" d="M141-36C126-15 110 5 73 4 37 3 15-17 15-53c-1-64 63-63 125-63 3-35-9-54-41-54-24 1-41 7-42 31l-33-3c5-37 33-52 76-52 45 0 72 20 72 64v82c-1 20 7 32 28 27v20c-31 9-61-2-59-35zM48-53c0 20 12 33 32 33 41-3 63-29 60-74-43 2-92-5-92 41" id="G"/><path fill="#3a414a" d="M115-194c53 0 69 39 70 98 0 66-23 100-70 100C84 3 66-7 56-30L54 0H23l1-261h32v101c10-23 28-34 59-34zm-8 174c40 0 45-34 45-75 0-40-5-75-45-74-42 0-51 32-51 76 0 43 10 73 51 73" id="H"/><g id="e"><use transform="matrix(0.06172839506172839,0,0,0.06172839506172839,0,0)" xlink:href="#F"/><use transform="matrix(0.06172839506172839,0,0,0.06172839506172839,15.987654320987653,0)" xlink:href="#G"/><use transform="matrix(0.06172839506172839,0,0,0.06172839506172839,28.333333333333332,0)" xlink:href="#y"/><use transform="matrix(0.06172839506172839,0,0,0.06172839506172839,34.50617283950617,0)" xlink:href="#G"/><use transform="matrix(0.06172839506172839,0,0,0.06172839506172839,46.85185185185185,0)" xlink:href="#H"/><use transform="matrix(0.06172839506172839,0,0,0.06172839506172839,59.197530864197525,0)" xlink:href="#G"/><use transform="matrix(0.06172839506172839,0,0,0.06172839506172839,71.5432098765432,0)" xlink:href="#q"/><use transform="matrix(0.06172839506172839,0,0,0.06172839506172839,82.65432098765432,0)" xlink:href="#r"/></g><g id="f"><use transform="matrix(0.06172839506172839,0,0,0.06172839506172839,0,0)" xlink:href="#F"/><use transform="matrix(0.06172839506172839,0,0,0.06172839506172839,15.987654320987653,0)" xlink:href="#r"/><use transform="matrix(0.06172839506172839,0,0,0.06172839506172839,28.333333333333332,0)" xlink:href="#u"/><use transform="matrix(0.06172839506172839,0,0,0.06172839506172839,39.44444444444444,0)" xlink:href="#w"/><use transform="matrix(0.06172839506172839,0,0,0.06172839506172839,44.32098765432099,0)" xlink:href="#q"/><use transform="matrix(0.06172839506172839,0,0,0.06172839506172839,55.4320987654321,0)" xlink:href="#w"/><use transform="matrix(0.06172839506172839,0,0,0.06172839506172839,60.308641975308646,0)" xlink:href="#D"/><use transform="matrix(0.06172839506172839,0,0,0.06172839506172839,72.65432098765433,0)" xlink:href="#x"/></g><path fill="#333" d="M169-182c-1-43-94-46-97-3 18 66 151 10 154 114 3 95-165 93-204 36-6-8-10-19-12-30l50-8c3 46 112 56 116 5-17-69-150-10-154-114-4-87 153-88 188-35 5 8 8 18 10 28" id="I"/><path fill="#333" d="M185-48c-13 30-37 53-82 52C43 2 14-33 14-96s30-98 90-98c62 0 83 45 84 108H66c0 31 8 55 39 56 18 0 30-7 34-22zm-45-69c5-46-57-63-70-21-2 6-4 13-4 21h74" id="J"/><path fill="#333" d="M135-194c87-1 58 113 63 194h-50c-7-57 23-157-34-157-59 0-34 97-39 157H25l-1-190h47c2 12-1 28 3 38 12-26 28-41 61-42" id="K"/><path fill="#333" d="M115-3C79 11 28 4 28-45v-112H4v-33h27l15-45h31v45h36v33H77v99c-1 23 16 31 38 25v30" id="L"/><g id="g"><use transform="matrix(0.04938271604938272,0,0,0.04938271604938272,0,0)" xlink:href="#I"/><use transform="matrix(0.04938271604938272,0,0,0.04938271604938272,11.851851851851853,0)" xlink:href="#J"/><use transform="matrix(0.04938271604938272,0,0,0.04938271604938272,21.7283950617284,0)" xlink:href="#K"/><use transform="matrix(0.04938271604938272,0,0,0.04938271604938272,32.543209876543216,0)" xlink:href="#L"/></g><g id="h"><use transform="matrix(0.04938271604938272,0,0,0.04938271604938272,0,0)" xlink:href="#I"/><use transform="matrix(0.04938271604938272,0,0,0.04938271604938272,11.851851851851853,0)" xlink:href="#J"/><use transform="matrix(0.04938271604938272,0,0,0.04938271604938272,21.7283950617284,0)" xlink:href="#K"/><use transform="matrix(0.04938271604938272,0,0,0.04938271604938272,32.543209876543216,0)" xlink:href="#L"/></g><path fill="#333" d="M182-182c0 78-84 86-111 141h115V0H12c-6-101 99-100 120-180 1-22-12-31-33-32-23 0-32 14-35 34l-49-3c5-45 32-70 84-70 51 0 83 22 83 69" id="M"/><use transform="matrix(0.04938271604938272,0,0,0.04938271604938272,0,0)" xlink:href="#M" id="i"/><path fill="#333" d="M128-127c34 4 56 21 59 58 7 91-148 94-172 28-4-9-6-17-7-26l51-5c1 24 16 35 40 36 23 0 39-12 38-36-1-31-31-36-65-34v-40c32 2 59-3 59-33 0-20-13-33-34-33s-33 13-35 32l-50-3c6-44 37-68 86-68 50 0 83 20 83 66 0 35-22 52-53 58" id="N"/><use transform="matrix(0.04938271604938272,0,0,0.04938271604938272,0,0)" xlink:href="#N" id="j"/><path fill="#333" d="M146-102V0H94v-102L6-248h54l60 105 60-105h54" id="O"/><path fill="#333" d="M137-138c1-29-70-34-71-4 15 46 118 7 119 86 1 83-164 76-172 9l43-7c4 19 20 25 44 25 33 8 57-30 24-41C81-84 22-81 20-136c-2-80 154-74 161-7" id="P"/><g id="k"><use transform="matrix(0.04938271604938272,0,0,0.04938271604938272,0,0)" xlink:href="#O"/><use transform="matrix(0.04938271604938272,0,0,0.04938271604938272,10.864197530864198,0)" xlink:href="#J"/><use transform="matrix(0.04938271604938272,0,0,0.04938271604938272,20.74074074074074,0)" xlink:href="#P"/></g><path fill="#333" d="M175 0L67-191c6 58 2 128 3 191H24v-248h59L193-55c-6-58-2-129-3-193h46V0h-61" id="Q"/><path fill="#333" d="M110-194c64 0 96 36 96 99 0 64-35 99-97 99-61 0-95-36-95-99 0-62 34-99 96-99zm-1 164c35 0 45-28 45-65 0-40-10-65-43-65-34 0-45 26-45 65 0 36 10 65 43 65" id="R"/><g id="l"><use transform="matrix(0.04938271604938272,0,0,0.04938271604938272,0,0)" xlink:href="#Q"/><use transform="matrix(0.04938271604938272,0,0,0.04938271604938272,12.790123456790125,0)" xlink:href="#R"/></g><path fill="#3a414a" d="M197 0v-115H63V0H30v-248h33v105h134v-105h34V0h-34" id="S"/><path fill="#3a414a" d="M210-169c-67 3-38 105-44 169h-31v-121c0-29-5-50-35-48C34-165 62-65 56 0H25l-1-190h30c1 10-1 24 2 32 10-44 99-50 107 0 11-21 27-35 58-36 85-2 47 119 55 194h-31v-121c0-29-5-49-35-48" id="T"/><g id="m"><use transform="matrix(0.06172839506172839,0,0,0.06172839506172839,0,0)" xlink:href="#S"/><use transform="matrix(0.06172839506172839,0,0,0.06172839506172839,15.987654320987653,0)" xlink:href="#D"/><use transform="matrix(0.06172839506172839,0,0,0.06172839506172839,28.333333333333332,0)" xlink:href="#T"/><use transform="matrix(0.06172839506172839,0,0,0.06172839506172839,46.79012345679012,0)" xlink:href="#r"/></g><path fill="#3a414a" d="M30 0v-248h187v28H63v79h144v27H63v87h162V0H30" id="U"/><path fill="#3a414a" d="M85-194c31 0 48 13 60 33l-1-100h32l1 261h-30c-2-10 0-23-3-31C134-8 116 4 85 4 32 4 16-35 15-94c0-66 23-100 70-100zm9 24c-40 0-46 34-46 75 0 40 6 74 45 74 42 0 51-32 51-76 0-42-9-74-50-73" id="V"/><g id="n"><use transform="matrix(0.06172839506172839,0,0,0.06172839506172839,0,0)" xlink:href="#U"/><use transform="matrix(0.06172839506172839,0,0,0.06172839506172839,14.814814814814813,0)" xlink:href="#x"/><use transform="matrix(0.06172839506172839,0,0,0.06172839506172839,27.160493827160494,0)" xlink:href="#V"/></g><path fill="#3a414a" d="M179-190L93 31C79 59 56 82 12 73V49c39 6 53-20 64-50L1-190h34L92-34l54-156h33" id="W"/><g id="o"><use transform="matrix(0.06172839506172839,0,0,0.06172839506172839,0,0)" xlink:href="#F"/><use transform="matrix(0.06172839506172839,0,0,0.06172839506172839,15.987654320987653,0)" xlink:href="#r"/><use transform="matrix(0.06172839506172839,0,0,0.06172839506172839,28.333333333333332,0)" xlink:href="#v"/><use transform="matrix(0.06172839506172839,0,0,0.06172839506172839,33.20987654320987,0)" xlink:href="#G"/><use transform="matrix(0.06172839506172839,0,0,0.06172839506172839,45.55555555555555,0)" xlink:href="#W"/></g><path fill="#3a414a" d="M233-177c-1 41-23 64-60 70L243 0h-38l-65-103H63V0H30v-248c88 3 205-21 203 71zM63-129c60-2 137 13 137-47 0-61-80-42-137-45v92" id="X"/><g id="p"><use transform="matrix(0.06172839506172839,0,0,0.06172839506172839,0,0)" xlink:href="#X"/><use transform="matrix(0.06172839506172839,0,0,0.06172839506172839,15.987654320987653,0)" xlink:href="#r"/><use transform="matrix(0.06172839506172839,0,0,0.06172839506172839,28.333333333333332,0)" xlink:href="#q"/><use transform="matrix(0.06172839506172839,0,0,0.06172839506172839,39.44444444444444,0)" xlink:href="#r"/><use transform="matrix(0.06172839506172839,0,0,0.06172839506172839,51.79012345679012,0)" xlink:href="#y"/></g></defs></g></svg>