<svg xmlns="http://www.w3.org/2000/svg" xmlns:xlink="http://www.w3.org/1999/xlink" xmlns:lucid="lucid" width="800" height="703.29"><g transform="translate(20 20)" lucid:page-tab-id="9-Nx2VwjSK_M"><path d="M120 108c0 6.63-26.86 12-60 12s-60-5.37-60-12V12C0 5.37 26.86 0 60 0s60 5.37 60 12z" stroke="#3a414a" fill="#fff"/><path d="M120 12c0 6.63-26.86 12-60 12S0 18.63 0 12" stroke="#3a414a" fill="none"/><use xlink:href="#a" transform="matrix(1,0,0,1,5,29) translate(27.870370370370374 47.34027777777778)"/><path d="M60 121v313a6 6 0 0 0 6 6h173.1" stroke="#3a414a" fill="none"/><path d="M60 120.5l.5-.02v.53h-1v-.52z" stroke="#3a414a" stroke-width=".05" fill="#3a414a"/><path d="M253.87 440l-14.27 4.63v-9.26z" stroke="#3a414a" fill="#3a414a"/><path d="M60 121v173a6 6 0 0 0 6 6h153.1" stroke="#3a414a" fill="none"/><path d="M60 120.5l.5-.02v.53h-1v-.52z" stroke="#3a414a" stroke-width=".05" fill="#3a414a"/><path d="M233.87 300l-14.27 4.63v-9.26z" stroke="#3a414a" fill="#3a414a"/><path d="M60 121v13a6 6 0 0 0 6 6h153.1" stroke="#3a414a" fill="none"/><path d="M60 120.5l.5-.02v.53h-1v-.52z" stroke="#3a414a" stroke-width=".05" fill="#3a414a"/><path d="M233.87 140l-14.27 4.63v-9.26z" stroke="#3a414a" fill="#3a414a"/><path d="M60 121v453a6 6 0 0 0 6 6h153.1" stroke="#3a414a" fill="none"/><path d="M60 120.5l.5-.02v.53h-1v-.52z" stroke="#3a414a" stroke-width=".05" fill="#3a414a"/><path d="M233.87 580l-14.27 4.63v-9.26z" stroke="#3a414a" fill="#3a414a"/><path d="M250.45 525.8A7.8 7.8 0 0 1 258 520h156a4.6 4.6 0 0 1 4.45 5.8l-28.9 108.4A7.8 7.8 0 0 1 382 640H226a4.6 4.6 0 0 1-4.45-5.8z" stroke="#3a414a" fill="#fff"/><use xlink:href="#b" transform="matrix(1,0,0,1,225,525) translate(25.258086419753077 59.02777777777778)"/><path d="M270.45 385.8A7.8 7.8 0 0 1 278 380h116a4.6 4.6 0 0 1 4.45 5.8l-28.9 108.4A7.8 7.8 0 0 1 362 500H246a4.6 4.6 0 0 1-4.45-5.8z" stroke="#3a414a" fill="#fff"/><use xlink:href="#a" transform="matrix(1,0,0,1,245,385) translate(48.37537037037037 59.02777777777778)"/><path d="M250.45 245.8A7.8 7.8 0 0 1 258 240h116a4.6 4.6 0 0 1 4.45 5.8l-28.9 108.4A7.8 7.8 0 0 1 342 360H226a4.6 4.6 0 0 1-4.45-5.8z" stroke="#3a414a" fill="#fff"/><use xlink:href="#c" transform="matrix(1,0,0,1,225,245) translate(44.70253086419753 59.02777777777778)"/><path d="M250.45 85.8A7.8 7.8 0 0 1 258 80h116a4.6 4.6 0 0 1 4.45 5.8l-28.9 108.4A7.8 7.8 0 0 1 342 200H226a4.6 4.6 0 0 1-4.45-5.8z" stroke="#3a414a" fill="#fff"/><use xlink:href="#d" transform="matrix(1,0,0,1,225,85) translate(48.96179012345679 59.02777777777778)"/><path d="M385.02 440H674a6 6 0 0 1 6 6v57.12" stroke="#ff80df" fill="none"/><path d="M385.03 440.5h-.65l.27-1h.38z" stroke="#ff80df" stroke-width=".05" fill="#ff80df"/><path d="M680 517.88l-4.63-14.26h9.26z" stroke="#ff80df" fill="#ff80df"/><path d="M365.02 300h111.24a6 6 0 0 1 6 6v188a6 6 0 0 0 6 6H514a6 6 0 0 1 6 6v68a6 6 0 0 0 6 6h28a6 6 0 0 0 6-6v-88.5a6 6 0 0 1 6-6h108a6 6 0 0 1 6 6v17.62" stroke="#9391ff" fill="none"/><path d="M365.03 300.5h-.65l.27-1h.38z" stroke="#9391ff" stroke-width=".05" fill="#9391ff"/><path d="M680 517.88l-4.63-14.26h9.26z" stroke="#9391ff" fill="#9391ff"/><path d="M603.33 525a3.2 3.2 0 0 1 2.67-5h148a3.2 3.2 0 0 1 2.67 5l-73.34 110a4 4 0 0 1-6.66 0z" stroke="#3a414a" fill="#fff"/><use xlink:href="#e" transform="matrix(1,0,0,1,605,525) translate(47.875370370370376 31.52777777777778)"/><use xlink:href="#f" transform="matrix(1,0,0,1,605,525) translate(44.202530864197534 58.19444444444445)"/><path d="M680 637.8v33.5a6 6 0 0 1-6 6H450.52a6 6 0 0 1-6-6V586a6 6 0 0 0-6-6H420.9" stroke="#00fcd6" fill="none"/><path d="M680 637.3l.5-.06v.56h-1v-.56z" stroke="#00fcd6" stroke-width=".05" fill="#00fcd6"/><path d="M406.13 580l14.27-4.63v9.26z" stroke="#00fcd6" fill="#00fcd6"/><defs><path fill="#3a414a" d="M84 4C-5 8 30-112 23-190h32v120c0 31 7 50 39 49 72-2 45-101 50-169h31l1 190h-30c-1-10 1-25-2-33-11 22-28 36-60 37" id="g"/><path fill="#3a414a" d="M135-143c-3-34-86-38-87 0 15 53 115 12 119 90S17 21 10-45l28-5c4 36 97 45 98 0-10-56-113-15-118-90-4-57 82-63 122-42 12 7 21 19 24 35" id="h"/><path fill="#3a414a" d="M100-194c63 0 86 42 84 106H49c0 40 14 67 53 68 26 1 43-12 49-29l28 8c-11 28-37 45-77 45C44 4 14-33 15-96c1-61 26-98 85-98zm52 81c6-60-76-77-97-28-3 7-6 17-6 28h103" id="i"/><path fill="#3a414a" d="M114-163C36-179 61-72 57 0H25l-1-190h30c1 12-1 29 2 39 6-27 23-49 58-41v29" id="j"/><g id="a"><use transform="matrix(0.06172839506172839,0,0,0.06172839506172839,0,0)" xlink:href="#g"/><use transform="matrix(0.06172839506172839,0,0,0.06172839506172839,12.345679012345679,0)" xlink:href="#h"/><use transform="matrix(0.06172839506172839,0,0,0.06172839506172839,23.45679012345679,0)" xlink:href="#i"/><use transform="matrix(0.06172839506172839,0,0,0.06172839506172839,35.80246913580247,0)" xlink:href="#j"/><use transform="matrix(0.06172839506172839,0,0,0.06172839506172839,43.148148148148145,0)" xlink:href="#h"/></g><path fill="#3a414a" d="M232-93c-1 65-40 97-104 97C67 4 28-28 28-90v-158h33c8 89-33 224 67 224 102 0 64-133 71-224h33v155" id="k"/><path fill="#3a414a" d="M-5 72V49h209v23H-5" id="l"/><path fill="#3a414a" d="M233-177c-1 41-23 64-60 70L243 0h-38l-65-103H63V0H30v-248c88 3 205-21 203 71zM63-129c60-2 137 13 137-47 0-61-80-42-137-45v92" id="m"/><path fill="#3a414a" d="M100-194c62-1 85 37 85 99 1 63-27 99-86 99S16-35 15-95c0-66 28-99 85-99zM99-20c44 1 53-31 53-75 0-43-8-75-51-75s-53 32-53 75 10 74 51 75" id="n"/><path fill="#3a414a" d="M210-169c-67 3-38 105-44 169h-31v-121c0-29-5-50-35-48C34-165 62-65 56 0H25l-1-190h30c1 10-1 24 2 32 10-44 99-50 107 0 11-21 27-35 58-36 85-2 47 119 55 194h-31v-121c0-29-5-49-35-48" id="o"/><g id="b"><use transform="matrix(0.06172839506172839,0,0,0.06172839506172839,0,0)" xlink:href="#k"/><use transform="matrix(0.06172839506172839,0,0,0.06172839506172839,15.987654320987653,0)" xlink:href="#h"/><use transform="matrix(0.06172839506172839,0,0,0.06172839506172839,27.098765432098766,0)" xlink:href="#i"/><use transform="matrix(0.06172839506172839,0,0,0.06172839506172839,39.44444444444444,0)" xlink:href="#j"/><use transform="matrix(0.06172839506172839,0,0,0.06172839506172839,46.79012345679012,0)" xlink:href="#h"/><use transform="matrix(0.06172839506172839,0,0,0.06172839506172839,57.90123456790123,0)" xlink:href="#l"/><use transform="matrix(0.06172839506172839,0,0,0.06172839506172839,70.24691358024691,0)" xlink:href="#m"/><use transform="matrix(0.06172839506172839,0,0,0.06172839506172839,86.23456790123457,0)" xlink:href="#n"/><use transform="matrix(0.06172839506172839,0,0,0.06172839506172839,98.58024691358025,0)" xlink:href="#n"/><use transform="matrix(0.06172839506172839,0,0,0.06172839506172839,110.92592592592594,0)" xlink:href="#o"/><use transform="matrix(0.06172839506172839,0,0,0.06172839506172839,129.38271604938274,0)" xlink:href="#h"/></g><g id="c"><use transform="matrix(0.06172839506172839,0,0,0.06172839506172839,0,0)" xlink:href="#j"/><use transform="matrix(0.06172839506172839,0,0,0.06172839506172839,7.345679012345679,0)" xlink:href="#n"/><use transform="matrix(0.06172839506172839,0,0,0.06172839506172839,19.691358024691358,0)" xlink:href="#n"/><use transform="matrix(0.06172839506172839,0,0,0.06172839506172839,32.03703703703704,0)" xlink:href="#o"/><use transform="matrix(0.06172839506172839,0,0,0.06172839506172839,50.49382716049382,0)" xlink:href="#h"/></g><path fill="#3a414a" d="M96-169c-40 0-48 33-48 73s9 75 48 75c24 0 41-14 43-38l32 2c-6 37-31 61-74 61-59 0-76-41-82-99-10-93 101-131 147-64 4 7 5 14 7 22l-32 3c-4-21-16-35-41-35" id="p"/><path fill="#3a414a" d="M106-169C34-169 62-67 57 0H25v-261h32l-1 103c12-21 28-36 61-36 89 0 53 116 60 194h-32v-121c2-32-8-49-39-48" id="q"/><path fill="#3a414a" d="M141-36C126-15 110 5 73 4 37 3 15-17 15-53c-1-64 63-63 125-63 3-35-9-54-41-54-24 1-41 7-42 31l-33-3c5-37 33-52 76-52 45 0 72 20 72 64v82c-1 20 7 32 28 27v20c-31 9-61-2-59-35zM48-53c0 20 12 33 32 33 41-3 63-29 60-74-43 2-92-5-92 41" id="r"/><path fill="#3a414a" d="M59-47c-2 24 18 29 38 22v24C64 9 27 4 27-40v-127H5v-23h24l9-43h21v43h35v23H59v120" id="s"/><g id="d"><use transform="matrix(0.06172839506172839,0,0,0.06172839506172839,0,0)" xlink:href="#p"/><use transform="matrix(0.06172839506172839,0,0,0.06172839506172839,11.11111111111111,0)" xlink:href="#q"/><use transform="matrix(0.06172839506172839,0,0,0.06172839506172839,23.45679012345679,0)" xlink:href="#r"/><use transform="matrix(0.06172839506172839,0,0,0.06172839506172839,35.80246913580247,0)" xlink:href="#s"/><use transform="matrix(0.06172839506172839,0,0,0.06172839506172839,41.97530864197531,0)" xlink:href="#h"/></g><g id="e"><use transform="matrix(0.06172839506172839,0,0,0.06172839506172839,0,0)" xlink:href="#g"/><use transform="matrix(0.06172839506172839,0,0,0.06172839506172839,12.345679012345679,0)" xlink:href="#h"/><use transform="matrix(0.06172839506172839,0,0,0.06172839506172839,23.45679012345679,0)" xlink:href="#i"/><use transform="matrix(0.06172839506172839,0,0,0.06172839506172839,35.80246913580247,0)" xlink:href="#j"/><use transform="matrix(0.06172839506172839,0,0,0.06172839506172839,43.148148148148145,0)" xlink:href="#h"/></g><g id="f"><use transform="matrix(0.06172839506172839,0,0,0.06172839506172839,0,0)" xlink:href="#j"/><use transform="matrix(0.06172839506172839,0,0,0.06172839506172839,7.345679012345679,0)" xlink:href="#n"/><use transform="matrix(0.06172839506172839,0,0,0.06172839506172839,19.691358024691358,0)" xlink:href="#n"/><use transform="matrix(0.06172839506172839,0,0,0.06172839506172839,32.03703703703704,0)" xlink:href="#o"/><use transform="matrix(0.06172839506172839,0,0,0.06172839506172839,50.49382716049382,0)" xlink:href="#h"/></g></defs></g></svg>